<?xml version="1.0" standalone="no"?>
<!DOCTYPE svg PUBLIC "-//W3C//DTD SVG 20010904//EN"
 "http://www.w3.org/TR/2001/REC-SVG-20010904/DTD/svg10.dtd">
<svg version="1.0" xmlns="http://www.w3.org/2000/svg"
 width="300.000000pt" height="300.000000pt" viewBox="0 0 300.000000 300.000000"
 preserveAspectRatio="xMidYMid meet">
<metadata>
Created by potrace 1.11, written by Peter Selinger 2001-2013
</metadata>
<g transform="translate(0.000000,300.000000) scale(0.100000,-0.100000)"
fill="#000000" stroke="none">
<path d="M865 2960 c-4 -6 -10 -8 -15 -5 -5 3 -12 0 -16 -6 -4 -7 -3 -9 3 -6
6 4 13 0 16 -8 4 -9 1 -12 -7 -9 -8 3 -17 0 -22 -7 -5 -8 -3 -10 6 -4 10 6 11
4 4 -6 -4 -8 -7 -25 -5 -38 2 -16 -1 -21 -10 -16 -8 6 -10 4 -4 -6 5 -7 10
-34 11 -58 1 -26 7 -47 14 -49 9 -3 9 -6 -1 -13 -10 -6 -6 -8 11 -5 14 3 27 5
30 6 3 2 10 1 15 0 28 -6 97 -5 101 1 2 4 13 5 24 2 11 -3 17 -10 13 -17 -5
-8 -3 -8 8 0 8 6 22 10 32 9 9 -2 15 0 13 3 -2 4 16 6 40 6 73 -3 76 -3 68
-16 -6 -10 -4 -10 7 -2 8 6 22 10 32 9 9 -2 15 0 13 4 -3 4 20 4 50 1 44 -5
54 -3 55 9 0 9 6 4 13 -12 7 -15 16 -24 20 -20 5 5 4 -1 -1 -12 -6 -11 -8 -26
-5 -33 3 -12 0 -12 -19 -1 -23 12 -23 11 -9 -6 9 -11 10 -16 3 -11 -8 4 -13 2
-13 -5 0 -6 -8 -1 -18 12 -15 17 -21 19 -27 9 -5 -8 -4 -11 3 -6 6 3 13 3 15
-1 3 -5 -90 -7 -206 -6 -245 1 -230 1 -223 11 3 5 -1 9 -8 9 -9 0 -11 -8 -8
-21 5 -20 5 -20 -12 -3 -21 21 -27 22 -20 2 4 -8 2 -15 -4 -15 -6 0 -8 -20 -6
-51 3 -39 1 -49 -8 -43 -9 6 -9 3 1 -9 11 -14 11 -20 0 -34 -8 -9 -9 -14 -4
-11 6 3 15 0 22 -7 10 -11 10 -14 0 -18 -7 -2 5 -6 25 -8 20 -3 35 -2 32 2 -2
4 3 10 12 13 8 3 12 2 9 -4 -9 -14 8 -12 24 3 11 10 13 10 7 0 -9 -16 -1 -16
27 -1 19 9 20 9 10 -3 -9 -12 -5 -14 28 -14 21 0 39 4 39 8 0 5 -7 6 -16 3 -8
-3 -12 -2 -9 3 3 6 14 9 25 8 10 -1 17 -4 14 -8 -2 -4 5 -9 16 -12 11 -3 18
-2 15 3 -3 4 2 11 11 14 23 9 31 7 16 -3 -10 -6 -7 -10 11 -13 17 -3 24 -1 21
7 -3 6 2 12 10 12 8 0 13 -4 11 -8 -3 -4 2 -10 11 -13 8 -3 13 -2 10 3 -3 5 3
11 15 14 15 4 18 3 9 -7 -8 -10 -4 -12 16 -8 21 4 25 2 19 -9 -8 -12 -6 -12 8
0 20 16 23 25 5 15 -7 -4 -9 -3 -5 1 11 13 38 15 31 3 -4 -7 2 -7 17 -3 22 7
23 7 9 -11 -10 -13 -7 -12 11 4 14 12 29 22 35 22 5 0 2 -5 -6 -10 -10 -6 -11
-10 -2 -10 6 0 12 -9 12 -19 0 -11 6 -22 13 -25 8 -3 5 -11 -10 -24 -22 -20
-56 -22 -102 -7 -16 5 -21 4 -17 -4 5 -7 1 -9 -8 -5 -9 3 -14 9 -12 13 3 4 -4
7 -14 7 -12 0 -16 -4 -10 -11 6 -7 2 -11 -9 -11 -10 0 -17 5 -15 11 3 6 -5 11
-16 12 -11 1 -20 -3 -20 -8 0 -6 5 -7 12 -3 6 4 8 3 5 -3 -7 -11 -43 -10 -54
2 -5 4 -2 5 5 1 6 -4 12 -2 12 3 0 14 -17 14 -25 1 -3 -5 -17 -10 -31 -10 -13
0 -24 5 -24 10 0 6 -5 10 -11 10 -6 0 -9 -6 -6 -12 3 -8 -5 -14 -21 -15 -18
-1 -21 1 -11 8 12 7 12 10 0 21 -8 7 -11 8 -8 3 3 -6 -3 -17 -15 -24 -14 -9
-18 -9 -13 -1 5 9 1 10 -15 5 -17 -5 -21 -4 -15 6 6 11 5 12 -6 2 -7 -7 -17
-13 -22 -13 -4 0 -5 6 -1 13 6 10 4 10 -7 0 -7 -7 -17 -13 -22 -13 -4 0 -5 6
-1 13 4 6 -3 3 -15 -7 -22 -20 -22 -20 -16 0 6 18 6 18 -5 1 -18 -29 -21 -177
-4 -184 8 -3 14 -12 14 -21 0 -13 2 -13 13 3 14 18 43 13 32 -6 -3 -5 1 -6 9
-3 9 3 13 10 10 15 -3 5 0 9 5 9 6 0 11 -6 11 -12 0 -7 5 -5 11 5 9 15 13 16
26 6 17 -14 55 -20 47 -7 -3 4 0 8 5 8 6 0 11 -4 11 -8 0 -5 7 -9 15 -9 8 0
15 4 15 9 0 4 -5 8 -12 8 -6 0 -8 3 -4 7 4 5 14 -1 22 -11 7 -11 17 -17 20
-13 4 4 13 2 20 -4 8 -7 14 -6 20 2 4 8 3 9 -4 5 -7 -4 -12 -2 -12 3 0 6 7 11
15 11 8 0 15 -5 15 -11 0 -8 5 -8 15 1 9 7 15 8 15 2 0 -5 7 -13 16 -16 15 -6
15 -4 3 10 -13 16 -12 16 8 6 16 -9 23 -9 26 1 3 6 6 3 6 -7 1 -20 1 -20 16 0
8 10 15 14 15 9 0 -13 39 -14 58 -2 8 5 12 2 13 -10 0 -16 1 -16 9 2 5 11 9
14 9 6 1 -11 4 -11 16 -1 13 11 14 10 9 -4 -3 -9 -1 -16 5 -16 9 0 9 -5 1 -21
-7 -11 -9 -27 -6 -35 5 -12 2 -12 -15 -3 -15 8 -19 8 -15 0 4 -6 2 -11 -3 -11
-6 0 -11 5 -11 10 0 6 -5 10 -11 10 -5 0 -8 -4 -4 -9 3 -5 0 -13 -6 -17 -8 -4
-9 -3 -5 4 4 6 -4 16 -16 23 -20 11 -22 11 -10 -3 10 -13 10 -18 1 -24 -8 -5
-9 -3 -4 6 6 10 4 12 -7 7 -9 -3 -21 0 -27 6 -6 6 -11 7 -11 1 0 -5 -9 -10
-20 -11 -11 -1 -18 2 -16 6 3 4 -1 8 -9 8 -8 0 -12 -4 -10 -8 3 -4 -5 -5 -17
-1 -16 4 -19 2 -13 -8 5 -9 4 -11 -4 -6 -6 4 -9 11 -7 15 3 3 -4 7 -14 7 -10
0 -16 -4 -14 -8 3 -4 0 -8 -5 -8 -6 0 -11 5 -11 12 0 9 -3 9 -12 0 -18 -18
-28 -15 -28 10 0 17 -3 19 -12 10 -17 -17 -26 -15 -30 5 -3 15 -4 15 -20 -1
-10 -10 -18 -13 -18 -7 0 6 -4 11 -10 11 -5 0 -10 -6 -10 -14 0 -20 -17 -29
-26 -15 -5 8 -3 9 6 4 9 -5 11 -4 6 4 -4 6 -12 9 -17 5 -5 -3 -7 -9 -4 -14 3
-4 -2 -10 -10 -14 -8 -3 -14 -2 -14 2 3 20 -2 32 -11 27 -6 -4 -7 -12 -3 -18
4 -7 -1 -6 -11 2 -14 12 -19 12 -29 1 -10 -10 -9 -11 3 -5 13 8 13 7 1 -9 -18
-21 -23 -135 -7 -155 8 -11 8 -13 -1 -7 -18 10 -16 -9 2 -28 8 -8 15 -20 15
-26 0 -6 4 -8 10 -5 6 4 7 -1 3 -11 -4 -10 -2 -15 4 -11 5 3 9 -3 8 -16 -2
-24 12 -55 35 -75 8 -7 9 -11 3 -7 -22 11 -14 -14 7 -25 11 -6 17 -16 14 -22
-4 -6 -3 -8 3 -5 6 4 14 0 17 -9 4 -9 9 -14 13 -11 3 4 12 2 19 -4 16 -13 54
9 54 31 0 11 2 12 8 2 6 -9 12 -5 20 13 7 16 17 23 24 19 7 -4 8 -3 4 5 -4 6
-2 19 5 27 6 8 9 17 6 21 -4 3 1 12 11 20 14 12 15 14 1 10 -14 -5 -15 -2 -5
18 6 13 15 21 19 18 5 -3 6 5 2 18 -7 22 -7 23 10 9 17 -14 18 -13 12 3 -3 9
-2 17 3 17 6 0 10 -6 10 -14 0 -8 5 -18 12 -22 6 -4 8 -3 5 3 -4 6 0 16 8 23
13 11 14 10 9 -4 -7 -18 15 -19 28 -1 5 6 8 4 8 -4 0 -11 4 -9 15 5 10 13 13
14 10 3 -4 -10 0 -16 10 -16 8 0 15 4 15 8 0 4 9 7 20 6 11 -1 20 -5 20 -9 0
-4 5 -8 11 -8 5 0 8 4 4 9 -3 5 0 13 6 17 7 4 9 3 5 -4 -3 -6 -2 -13 4 -17 5
-3 10 -2 10 4 0 5 9 9 20 8 11 -1 20 -4 20 -8 0 -4 11 -6 25 -5 14 0 25 5 25
10 0 6 6 1 14 -10 14 -18 15 -18 22 -1 5 15 9 16 15 5 7 -10 9 -9 9 5 0 9 4
17 8 17 5 0 8 14 7 30 -1 17 2 33 7 36 5 3 5 11 0 17 -5 7 -8 30 -7 52 1 22
-3 46 -9 54 -8 11 -8 13 2 7 10 -6 12 1 7 34 -5 32 -3 40 6 34 8 -5 9 -3 3 7
-4 8 -9 43 -9 79 0 36 -5 71 -9 79 -6 10 -5 12 3 7 9 -6 11 2 6 34 -5 32 -3
40 6 34 8 -5 9 -3 3 7 -4 8 -9 43 -9 79 0 36 -5 71 -9 79 -6 10 -5 12 2 7 8
-5 12 1 12 14 0 14 -4 19 -12 14 -7 -4 -5 2 5 13 15 17 16 25 6 45 -8 19 -8
31 1 48 7 12 8 20 2 16 -6 -3 -9 16 -8 49 0 30 5 55 10 55 5 0 3 7 -4 15 -10
12 -10 15 1 15 12 0 12 2 0 9 -7 5 -11 13 -7 19 3 5 -1 15 -9 22 -12 10 -13
16 -3 29 7 9 9 13 4 9 -5 -4 -18 -2 -29 4 -17 9 -19 8 -14 -6 8 -20 0 -21 -19
-2 -11 11 -20 12 -43 3 -17 -6 -27 -16 -23 -21 3 -6 -5 -3 -18 6 -14 9 -24 22
-22 28 1 6 -2 9 -8 5 -6 -3 -8 -11 -5 -16 4 -5 3 -9 -2 -10 -4 0 -19 -2 -32
-5 -20 -4 -22 -2 -11 11 11 13 10 14 -5 9 -14 -6 -16 -4 -10 6 6 9 4 11 -4 6
-7 -5 -10 -14 -8 -21 7 -16 -33 -14 -51 2 -10 10 -19 10 -33 2 -25 -13 -53 -4
-43 13 5 10 3 9 -7 0 -12 -11 -11 -15 5 -28 11 -8 16 -14 11 -14 -5 0 -20 10
-33 23 -14 12 -22 16 -18 10 7 -13 -2 -17 -42 -15 -15 1 -20 -3 -15 -11 5 -9
3 -9 -8 -1 -8 6 -31 10 -51 9 -20 -1 -35 2 -32 7 3 5 10 5 16 2 6 -4 8 -2 5 4
-5 7 -16 7 -36 -1 -17 -6 -27 -16 -23 -21 3 -6 -5 -3 -18 6 -14 9 -24 21 -22
27 3 14 -5 14 -13 1z m349 -18 c3 -5 -1 -9 -9 -9 -8 0 -12 4 -9 9 3 4 7 8 9 8
2 0 6 -4 9 -8z m240 0 c3 -5 -1 -9 -9 -9 -8 0 -12 4 -9 9 3 4 7 8 9 8 2 0 6
-4 9 -8z m-436 -970 c-8 -10 -8 -13 -2 -9 25 15 40 -80 18 -112 -7 -10 -21
-17 -31 -16 -29 3 -53 16 -47 26 3 5 1 9 -4 9 -4 0 -8 17 -8 38 1 43 40 91 69
84 14 -4 15 -7 5 -20z m432 -76 c0 -2 -7 -7 -16 -10 -8 -3 -12 -2 -9 4 6 10
25 14 25 6z m-440 -78 c0 -4 -9 -8 -20 -8 -11 0 -20 4 -20 8 0 4 9 8 20 8 11
0 20 -4 20 -8z m-20 -122 c0 -2 -7 -7 -16 -10 -8 -3 -12 -2 -9 4 6 10 25 14
25 6z m20 -11 c0 -8 -4 -15 -10 -15 -5 0 -7 7 -4 15 4 8 8 15 10 15 2 0 4 -7
4 -15z"/>
<path d="M897 2963 c-10 -9 -9 -23 1 -23 5 0 9 7 9 15 0 17 -1 18 -10 8z"/>
<path d="M991 2954 c0 -11 3 -14 6 -6 3 7 2 16 -1 19 -3 4 -6 -2 -5 -13z"/>
<path d="M1037 2963 c-4 -3 -7 -11 -7 -17 0 -6 5 -5 12 2 6 6 9 14 7 17 -3 3
-9 2 -12 -2z"/>
<path d="M1067 2957 c-3 -8 0 -14 7 -14 7 0 13 6 13 14 0 7 -4 13 -8 13 -4 0
-9 -6 -12 -13z"/>
<path d="M1377 2963 c-10 -9 -9 -23 1 -23 5 0 9 7 9 15 0 17 -1 18 -10 8z"/>
<path d="M1525 2920 c3 -5 8 -10 11 -10 2 0 4 5 4 10 0 6 -5 10 -11 10 -5 0
-7 -4 -4 -10z"/>
<path d="M1619 2663 c-3 -7 -7 -23 -8 -34 0 -5 -5 -8 -9 -5 -9 5 -7 -47 2 -63
4 -5 2 -12 -4 -16 -6 -4 -7 -12 -1 -23 5 -9 5 -26 0 -39 -5 -13 -4 -25 1 -28
6 -3 6 -15 0 -29 -5 -15 -5 -27 3 -35 7 -7 7 -11 1 -11 -11 0 -12 -35 -2 -46
4 -3 3 -17 -2 -30 -6 -14 -6 -26 0 -29 6 -3 6 -15 0 -30 -6 -15 -6 -27 0 -30
6 -3 6 -15 0 -29 -5 -15 -5 -27 3 -35 7 -7 7 -11 1 -11 -6 0 -10 -10 -8 -22 1
-13 3 -23 4 -23 1 0 2 -15 3 -33 1 -17 -2 -32 -6 -32 -4 0 -3 -9 3 -20 6 -11
7 -20 2 -20 -5 0 -7 -15 -6 -32 3 -35 22 -101 23 -81 1 12 18 12 39 0 11 -8
16 -2 13 15 0 4 6 5 14 2 8 -4 12 -11 8 -18 -4 -6 2 -4 12 4 11 9 16 10 11 3
-4 -7 -3 -13 3 -13 11 0 30 -49 33 -87 1 -7 6 -13 11 -13 5 0 7 -7 3 -15 -3
-8 0 -14 7 -12 7 1 11 -6 9 -17 -3 -14 1 -17 13 -12 9 3 13 2 10 -3 -3 -5 0
-13 6 -17 6 -3 15 -1 19 6 9 15 23 -16 14 -33 -3 -7 2 -3 10 7 9 11 16 15 16
10 0 -6 7 -11 15 -11 10 0 12 4 5 12 -8 9 -3 11 16 7 17 -3 25 -1 21 6 -4 5 0
13 9 16 8 3 12 10 9 16 -3 5 -1 10 5 10 14 0 35 57 33 88 -1 12 2 20 7 17 10
-6 14 8 11 34 -2 7 2 10 8 7 5 -4 10 2 10 11 0 10 2 32 5 50 3 18 1 35 -4 38
-6 4 -7 12 -3 18 12 19 13 46 3 52 -6 4 -7 12 -3 18 12 18 11 71 -1 79 -7 5
-6 8 4 8 11 0 12 2 3 8 -7 4 -13 24 -15 45 -1 20 -5 37 -8 37 -4 0 -7 6 -7 13
-1 17 -11 82 -13 82 -3 0 -11 39 -12 55 0 8 -5 21 -11 28 -5 7 -7 15 -4 19 4
3 2 12 -4 19 -6 8 -9 20 -6 28 3 8 2 16 -3 18 -5 2 -10 22 -11 46 -2 23 -7 42
-12 42 -4 0 -5 5 -2 10 3 6 -1 13 -9 16 -9 3 -16 10 -16 16 0 5 5 6 12 2 7 -4
8 -3 4 5 -4 6 -11 9 -16 6 -5 -3 -11 -1 -15 5 -8 13 -25 13 -25 -1 0 -5 4 -8
9 -4 5 3 13 0 17 -6 4 -7 3 -9 -4 -5 -5 3 -13 0 -15 -6 -4 -10 -6 -10 -6 0 -1
6 -10 12 -22 12 -13 0 -18 4 -13 12 4 6 -3 4 -16 -5 -17 -12 -28 -13 -42 -6
-10 5 -18 6 -18 2 0 -4 -5 -1 -11 7 -9 13 -10 12 -5 -2 4 -15 1 -16 -21 -7
-21 8 -24 7 -15 -3 8 -10 5 -13 -13 -13 -19 0 -21 3 -12 14 10 12 9 12 -10 3
-16 -9 -24 -9 -29 0 -4 6 -3 8 4 4 6 -3 13 -3 16 2 3 5 -1 9 -9 9 -8 0 -16 -2
-16 -4z m191 -23 c0 -5 -5 -10 -11 -10 -5 0 -7 5 -4 10 3 6 8 10 11 10 2 0 4
-4 4 -10z m-24 -109 c-3 -5 1 -12 10 -15 8 -3 12 -2 9 4 -3 6 -2 10 4 10 5 0
12 -6 14 -12 3 -7 6 -4 6 7 1 17 4 15 16 -9 8 -15 12 -32 9 -37 -3 -5 -1 -9 4
-9 5 0 9 -6 9 -12 2 -36 10 -75 17 -87 5 -8 4 -16 -4 -21 -9 -5 -8 -9 4 -13 8
-3 14 -14 14 -24 -1 -26 5 -47 17 -55 6 -5 5 -8 -4 -8 -9 0 -10 -4 -4 -12 6
-7 9 -21 8 -30 -2 -10 1 -18 6 -18 6 0 7 -5 4 -11 -4 -6 -14 -8 -22 -4 -14 5
-14 3 -2 -12 12 -15 12 -16 -3 -10 -9 3 -19 1 -22 -6 -2 -7 -5 -1 -5 13 -1 19
-3 22 -10 11 -8 -12 -14 -13 -36 -3 -23 11 -25 10 -16 -6 7 -14 6 -19 -4 -19
-8 0 -14 3 -13 6 2 19 -4 22 -19 10 -11 -10 -14 -10 -9 -1 7 11 -5 17 -27 13
-5 -1 -6 3 -2 9 4 6 1 18 -7 27 -11 14 -11 16 1 8 11 -6 13 -3 7 19 -4 16 -2
26 4 26 7 0 8 5 3 13 -11 17 -10 41 2 49 6 5 6 8 -1 8 -11 0 -9 68 1 79 3 2
-1 11 -8 19 -10 12 -9 16 1 20 10 3 10 7 2 18 -14 16 -3 37 13 27 7 -4 5 2 -3
12 -14 17 -13 18 3 12 11 -4 17 -2 17 8 0 8 5 15 11 15 5 0 8 -4 5 -9z m98
-542 c-2 -4 4 -12 13 -18 10 -6 14 -11 9 -11 -5 0 -3 -7 4 -15 9 -10 9 -15 1
-15 -6 0 -11 -5 -11 -11 0 -5 5 -7 11 -3 8 4 9 -4 4 -27 -4 -19 -11 -35 -15
-37 -4 -1 -16 -10 -26 -18 -18 -14 -17 -14 6 -4 24 11 24 10 6 -4 -24 -20 -36
-20 -36 -2 0 8 -7 17 -16 20 -9 4 -14 13 -10 21 3 8 2 15 -3 15 -11 0 -8 64 4
72 6 4 10 13 10 20 0 7 9 12 19 10 10 -2 16 1 12 6 -3 5 1 9 9 9 8 0 12 -4 9
-8z"/>
<path d="M1361 2391 c-8 -5 -22 -8 -32 -6 -10 2 -21 0 -24 -4 -7 -13 55 -5 68
8 13 13 7 14 -12 2z"/>
<path d="M950 2180 c0 -5 5 -10 11 -10 5 0 7 5 4 10 -3 6 -8 10 -11 10 -2 0
-4 -4 -4 -10z"/>
<path d="M2615 1480 c-3 -5 -3 -14 0 -20 4 -6 -1 -7 -12 -3 -10 3 -15 3 -11
-1 8 -10 -14 -36 -24 -30 -4 3 -10 -7 -14 -21 -3 -14 -11 -25 -18 -25 -6 0 -4
-5 4 -10 12 -8 12 -10 1 -10 -11 0 -11 -3 -1 -15 7 -8 8 -15 4 -15 -5 0 -9
-168 -9 -379 0 -209 3 -377 7 -374 5 2 8 -5 8 -16 0 -12 4 -21 10 -21 5 0 6
-7 3 -17 -5 -12 -3 -14 7 -8 9 6 12 4 8 -6 -4 -10 1 -15 13 -16 12 -1 17 3 13
9 -4 7 -2 8 5 4 8 -6 9 -12 2 -20 -8 -9 -7 -13 4 -13 8 0 15 4 15 9 0 5 4 7 9
4 5 -3 12 1 15 9 3 8 9 15 13 14 21 -4 33 2 33 17 0 9 5 12 12 8 7 -4 8 -3 4
5 -4 6 -3 17 2 24 5 7 8 20 7 30 -2 9 0 17 4 17 8 0 5 64 -3 102 -2 9 0 18 4
20 5 2 5 22 1 46 -5 26 -5 42 2 42 5 0 4 7 -3 15 -7 8 -8 15 -3 15 6 0 7 18 3
45 -4 27 -3 45 3 45 5 0 4 7 -3 15 -7 8 -8 15 -3 15 6 0 8 15 3 40 -4 21 -4
41 1 42 4 2 4 22 0 46 -6 29 -5 42 3 42 6 0 4 5 -4 10 -11 7 -11 10 -2 10 10
0 10 5 2 20 -8 15 -8 20 2 20 9 0 9 3 -2 10 -12 8 -12 10 -1 10 11 0 11 3 1
15 -7 9 -8 15 -2 15 6 0 7 13 2 34 -4 18 -3 41 2 50 6 10 5 16 -2 16 -6 0 -9
4 -5 9 3 5 1 12 -5 16 -6 4 -8 11 -5 16 4 5 1 9 -5 9 -6 0 -8 5 -5 11 4 6 -2
13 -13 16 -14 3 -19 10 -15 21 4 10 2 13 -5 8 -7 -4 -12 -2 -12 4 0 6 -8 10
-17 8 -10 -2 -17 3 -15 10 3 15 -4 16 -13 2z m40 -146 c1 -11 8 -18 15 -16 7
1 8 -2 4 -10 -11 -17 -11 -107 -1 -101 5 3 4 -3 -2 -14 -7 -14 -7 -23 1 -31 7
-7 8 -12 2 -12 -11 0 -11 -131 0 -149 4 -6 3 -11 -1 -11 -10 0 -9 -132 1 -149
4 -6 3 -11 -2 -11 -12 0 -9 -113 3 -122 6 -5 5 -8 -4 -8 -11 0 -11 -3 -1 -15
9 -11 9 -15 1 -15 -7 0 -10 -10 -7 -25 3 -14 0 -25 -5 -25 -6 0 -7 -4 -4 -10
3 -5 4 -10 1 -10 -2 0 -12 -3 -22 -7 -12 -4 -15 -3 -10 5 6 11 -6 17 -27 13
-4 -1 -3 8 3 19 6 11 7 20 3 20 -4 0 -8 126 -8 280 0 154 4 280 9 280 5 0 4 6
-1 13 -9 11 -9 48 0 98 8 47 44 56 52 13z"/>
<path d="M350 1472 c-18 -6 -66 -42 -56 -42 4 0 0 -10 -9 -23 -8 -13 -12 -27
-8 -30 3 -4 0 -7 -7 -7 -7 0 -11 -3 -7 -6 3 -3 2 -17 -3 -30 -7 -16 -6 -24 1
-24 7 0 6 -6 -2 -17 -11 -13 -11 -17 -1 -21 10 -3 10 -7 1 -18 -9 -11 -9 -14
0 -14 9 0 9 -5 1 -20 -8 -14 -8 -20 0 -20 6 0 8 -5 3 -12 -12 -20 -12 -38 -1
-38 6 0 5 -6 -2 -15 -9 -11 -9 -15 -1 -15 7 0 9 -5 4 -12 -11 -18 -10 -52 2
-61 7 -6 6 -10 -2 -13 -8 -4 -9 -13 -3 -30 5 -13 6 -24 2 -24 -4 0 -8 -9 -8
-20 0 -11 4 -20 8 -20 4 0 3 -12 -2 -26 -7 -18 -7 -23 2 -18 7 5 8 3 3 -5 -11
-19 -12 -80 0 -85 7 -3 7 -7 0 -13 -13 -10 -16 -43 -4 -43 5 0 4 -12 -2 -27
-7 -20 -6 -28 3 -35 10 -6 10 -8 -2 -8 -13 0 -13 -1 0 -10 13 -9 13 -10 0 -10
-12 0 -12 -2 -1 -9 9 -6 10 -11 2 -15 -7 -5 -7 -15 0 -33 5 -15 7 -33 5 -40
-3 -8 -1 -11 4 -8 5 3 12 -6 16 -20 3 -14 10 -25 16 -25 5 0 6 -5 3 -10 -4 -6
-3 -10 2 -9 25 4 44 -2 37 -13 -6 -10 -4 -10 7 0 16 15 33 16 23 0 -5 -7 -3
-8 5 -4 7 5 10 14 7 22 -4 11 -2 12 14 4 13 -7 21 -7 26 2 4 7 3 8 -4 4 -7 -4
-12 -2 -12 3 0 6 3 11 8 11 10 0 32 51 26 61 -3 5 -1 9 3 9 8 0 9 757 1 793
-3 10 -10 22 -17 27 -8 4 -10 13 -6 20 5 9 4 11 -3 6 -7 -4 -12 -2 -12 3 0 6
-5 11 -11 11 -7 0 -17 6 -23 14 -6 7 -18 11 -26 8z m20 -126 c-1 -5 4 -12 11
-16 14 -9 20 -289 7 -328 -4 -13 -5 -21 0 -18 4 2 7 -27 7 -65 0 -38 -4 -69
-8 -69 -5 0 -5 -5 -1 -11 10 -16 12 -189 2 -189 -4 0 -8 -5 -8 -11 0 -5 5 -7
10 -4 17 11 11 -4 -11 -26 -16 -16 -23 -18 -29 -9 -6 9 -9 9 -13 -1 -9 -22 -9
4 -11 366 -2 290 0 344 13 365 15 24 15 25 -4 10 -19 -14 -19 -14 -6 3 14 18
43 20 41 3z"/>
<path d="M1356 1468 c-12 -39 -13 -58 -2 -62 7 -3 7 -5 -2 -5 -7 -1 -10 -6 -7
-12 11 -17 11 -89 0 -93 -5 -3 -4 -5 3 -5 8 -1 10 -6 5 -13 -11 -18 -10 -62 2
-70 6 -5 5 -8 -2 -8 -9 0 -10 -7 -3 -25 7 -17 6 -25 -1 -25 -7 0 -6 -6 2 -17
10 -11 10 -14 2 -9 -7 4 -13 2 -13 -3 0 -6 5 -11 11 -11 8 0 8 -4 0 -13 -8
-10 -7 -17 2 -27 9 -10 9 -11 0 -6 -16 9 -17 -6 -1 -22 8 -8 8 -12 1 -12 -13
0 -12 -52 2 -62 6 -5 5 -8 -2 -8 -9 0 -10 -7 -3 -25 7 -17 6 -25 -1 -25 -7 0
-6 -6 2 -17 10 -11 10 -14 2 -9 -7 4 -13 2 -13 -3 0 -6 5 -11 11 -11 8 0 8 -4
0 -14 -9 -11 -9 -15 1 -19 10 -4 10 -6 -1 -6 -11 -1 -11 -4 0 -18 9 -11 10
-14 2 -9 -12 7 -12 -7 2 -76 2 -10 -1 -21 -7 -24 -6 -4 -5 -10 3 -15 12 -8 11
-11 -1 -19 -13 -9 -13 -10 0 -10 13 0 13 -1 0 -10 -12 -8 -13 -11 -1 -19 7 -5
9 -11 4 -14 -14 -9 -5 -96 11 -113 17 -17 30 -19 20 -2 -5 7 -2 9 7 6 16 -6
18 4 22 121 2 39 8 57 22 67 12 9 14 14 5 14 -7 0 2 14 20 30 20 17 28 30 19
30 -11 1 -10 4 4 14 9 7 17 17 17 22 0 5 7 22 15 37 9 18 10 25 2 20 -9 -5 -9
-3 0 8 6 8 12 28 14 44 2 17 7 35 11 40 4 6 3 17 -2 25 -6 10 -3 21 8 34 9 11
12 16 6 13 -16 -9 -25 18 -12 31 8 8 7 16 -3 28 -11 14 -11 16 -1 10 11 -6 12
0 8 28 -9 56 -10 61 -21 68 -6 5 -5 8 3 8 10 0 10 5 2 20 -6 11 -8 20 -4 20 3
0 0 7 -7 17 -8 9 -13 18 -11 20 1 1 2 4 1 6 0 1 -2 11 -4 22 -2 11 -9 21 -15
23 -5 2 -8 8 -4 13 3 5 0 9 -6 9 -6 0 -9 4 -6 9 3 5 -1 11 -9 15 -8 3 -15 12
-15 21 0 8 -4 15 -10 15 -5 0 -10 7 -10 16 0 8 -4 12 -10 9 -9 -5 -14 6 -12
26 1 3 -5 6 -13 6 -8 0 -12 -4 -9 -9 3 -4 -2 -5 -10 -2 -9 3 -13 10 -10 15 3
5 3 9 -1 9 -3 0 -7 -6 -9 -12z m76 -187 c3 9 6 8 11 -4 4 -10 2 -17 -5 -17 -7
0 -3 -7 8 -16 10 -8 13 -13 7 -9 -9 4 -11 1 -7 -9 3 -9 10 -16 16 -16 5 0 6
-4 3 -10 -3 -5 0 -10 7 -11 10 0 10 -2 1 -6 -9 -3 -10 -10 -4 -21 4 -9 7 -27
6 -39 -1 -13 2 -23 7 -23 5 0 5 -8 0 -17 -7 -11 -6 -23 2 -35 8 -14 8 -20 -2
-27 -8 -4 -14 -12 -14 -16 0 -4 6 -12 14 -16 9 -6 9 -9 1 -9 -6 0 -10 -9 -8
-20 2 -11 0 -20 -5 -20 -5 0 -7 -9 -5 -20 2 -11 0 -20 -5 -20 -5 0 -7 -9 -5
-20 2 -11 -1 -19 -8 -17 -10 2 -12 -3 -16 -35 -1 -9 -4 -9 -13 0 -13 13 -17
122 -4 122 5 0 2 8 -5 17 -8 9 -9 14 -3 10 14 -8 13 65 -1 75 -6 5 -5 8 3 8
10 0 10 5 1 21 -6 12 -7 19 -1 15 13 -7 10 67 -3 76 -6 5 -5 8 3 8 9 0 10 6 5
18 -7 14 -9 49 -4 87 1 6 5 4 10 -4 7 -11 9 -11 13 0z"/>
<path d="M1807 1464 c2 -6 -3 -14 -12 -18 -9 -3 -13 -10 -10 -16 3 -6 -1 -7
-10 -4 -10 4 -15 2 -13 -7 2 -8 -3 -13 -11 -11 -9 2 -11 -3 -7 -13 3 -9 -1
-18 -9 -21 -8 -4 -13 -10 -10 -14 3 -5 1 -11 -5 -15 -5 -3 -10 -15 -10 -26 0
-11 -4 -18 -9 -15 -9 6 -26 -58 -22 -83 1 -7 -1 -11 -6 -8 -11 7 -15 -44 -16
-235 -1 -92 -4 -165 -8 -162 -4 2 -9 -3 -12 -10 -4 -9 -15 -13 -30 -11 -24 5
-25 1 -15 -71 1 -6 10 -17 21 -23 15 -10 18 -10 12 1 -3 7 0 5 8 -4 8 -10 16
-15 19 -13 3 3 4 -31 3 -75 -1 -44 2 -80 7 -80 4 0 7 -6 5 -12 -1 -7 4 -12 11
-11 6 2 12 -2 12 -8 0 -6 5 -5 13 3 17 17 30 51 17 43 -7 -4 -7 3 0 19 6 16 6
27 0 31 -6 4 -7 13 -1 23 6 11 6 24 0 33 -6 12 -3 23 11 39 11 13 20 17 20 10
0 -10 4 -9 17 1 15 12 16 12 10 -3 -3 -10 -2 -20 4 -24 6 -3 9 -38 7 -84 -2
-43 -1 -77 3 -74 4 2 9 -1 11 -8 2 -6 12 -12 21 -14 9 -1 15 2 11 7 -3 5 -1 9
4 9 5 0 12 13 14 30 3 16 1 30 -4 30 -5 0 -6 5 -3 10 4 6 8 40 9 76 2 40 8 69
16 74 10 6 10 9 0 15 -10 6 -9 11 4 21 16 11 16 13 -5 19 -17 6 -19 9 -8 16
11 7 10 9 -4 9 -11 0 -15 5 -11 11 10 17 10 149 -1 153 -5 3 -4 5 4 5 11 1 11
4 1 16 -10 12 -10 15 0 15 9 0 9 4 -1 17 -10 11 -10 14 -1 9 15 -9 16 6 0 22
-9 9 -9 12 1 12 11 0 11 3 0 17 -10 11 -10 14 -1 9 15 -9 16 6 0 22 -7 7 -8
12 -2 12 13 0 12 73 -1 82 -6 5 -5 8 4 8 11 0 11 3 1 15 -10 12 -10 15 0 15 9
0 9 4 -1 17 -10 11 -10 14 -1 9 15 -9 16 6 0 22 -9 9 -9 12 -1 12 8 0 9 9 3
30 -5 17 -5 30 -1 30 4 0 6 15 5 33 -1 17 -3 38 -3 45 -1 8 -6 10 -13 6 -10
-6 -10 -5 -1 7 10 12 8 15 -11 15 -14 0 -22 -5 -19 -12z m-18 -196 c1 -18 4
-45 5 -60 1 -16 0 -28 -3 -28 -3 0 -6 -16 -6 -35 0 -19 3 -35 8 -35 5 0 4 -7
-3 -15 -10 -12 -10 -15 1 -15 9 0 10 -3 4 -8 -12 -8 -14 -62 -2 -62 4 0 3 -8
-2 -18 -7 -13 -6 -23 1 -30 9 -9 9 -12 0 -12 -11 0 -10 -50 3 -70 3 -5 1 -10
-5 -10 -8 0 -7 -6 1 -21 9 -17 8 -20 -2 -14 -9 6 -11 3 -6 -8 3 -10 2 -17 -4
-17 -6 0 -7 -6 -3 -12 5 -8 0 -7 -11 2 -11 9 -16 10 -11 3 4 -7 2 -13 -3 -13
-6 0 -11 5 -11 11 0 5 -6 7 -12 3 -7 -4 -10 -4 -6 0 3 4 3 20 -2 34 -4 15 -3
37 1 50 6 15 5 22 -3 22 -9 0 -9 3 -1 11 8 8 8 20 2 36 -6 17 -6 22 2 17 8 -5
8 -1 0 13 -6 11 -7 23 -4 27 11 10 11 46 0 46 -5 0 -5 5 1 13 7 8 7 18 2 27
-5 8 -5 19 -1 25 5 5 9 17 9 25 0 8 3 25 6 38 3 12 8 32 11 43 2 12 12 28 22
36 10 8 11 11 3 7 -13 -7 -13 -5 -1 9 7 9 14 17 15 17 1 0 3 -15 5 -32z"/>
<path d="M564 1462 c4 -6 -2 -19 -13 -28 -10 -9 -17 -23 -14 -30 3 -8 -2 -14
-11 -14 -14 0 -15 -4 -6 -20 10 -18 7 -24 -12 -21 -4 0 -4 -9 0 -22 4 -12 7
-189 6 -394 0 -205 3 -370 8 -367 4 3 9 -2 9 -10 1 -9 2 -21 3 -27 2 -19 39
-39 60 -33 15 4 17 3 8 -4 -11 -7 -11 -10 3 -15 9 -4 18 -1 22 8 4 13 8 13 21
3 12 -10 14 -10 8 0 -4 7 -2 12 4 12 6 0 9 4 6 9 -3 5 1 12 10 15 8 3 13 10
10 15 -4 5 -1 11 5 13 6 2 12 18 12 36 1 18 4 32 7 32 3 0 3 128 0 285 -3 157
-3 285 0 285 6 0 3 124 -4 160 -2 14 -5 28 -5 32 -1 4 -8 14 -17 22 -12 12
-12 16 -2 17 7 0 3 4 -9 9 -13 5 -23 15 -23 22 0 23 -48 20 -66 -5 -11 -14
-14 -16 -11 -5 4 10 1 20 -5 24 -7 4 -8 3 -4 -4z m75 -137 c6 -9 7 -692 1
-705 -1 -3 -2 -9 -1 -14 1 -5 -6 -6 -15 -2 -14 5 -15 4 -4 -9 17 -21 7 -19
-19 4 -13 11 -20 25 -16 30 3 6 2 11 -2 11 -5 0 -9 9 -10 20 -1 13 2 18 10 14
8 -5 8 -3 0 7 -16 16 -17 33 -2 23 8 -5 8 -1 0 14 -6 11 -11 23 -11 27 0 3 5
3 11 -1 8 -5 8 -1 0 13 -7 14 -7 24 2 33 7 8 8 11 1 7 -13 -7 -13 50 -1 70 4
6 3 14 -3 18 -5 3 -10 11 -10 16 0 6 5 7 11 3 8 -5 8 -1 0 13 -7 14 -7 24 2
33 7 8 8 11 1 7 -13 -7 -13 50 -1 70 4 6 3 14 -3 18 -5 3 -10 11 -10 16 0 6 5
7 11 3 8 -4 8 -1 1 12 -13 24 -13 36 -1 51 7 7 6 14 -1 18 -5 3 -10 11 -10 16
0 6 5 7 12 3 7 -5 8 -3 2 7 -12 19 -11 41 1 58 7 11 7 13 -1 8 -7 -4 -11 2
-11 18 0 14 3 22 7 20 5 -3 6 4 3 15 -3 11 1 28 8 37 12 14 12 16 0 8 -10 -6
-12 -4 -7 4 5 7 14 10 22 7 8 -3 13 -2 13 2 -3 19 4 25 8 7 3 -11 8 -24 12
-30z"/>
<path d="M111 1443 c-8 -14 -10 -15 -11 -3 0 13 -1 13 -11 0 -8 -11 -12 -12
-16 -2 -2 6 -9 12 -14 12 -6 0 -7 -4 -4 -10 3 -5 0 -7 -8 -4 -9 3 -17 -4 -22
-18 -11 -36 -12 -58 -3 -52 4 3 8 -2 8 -10 0 -14 12 -20 32 -17 12 1 30 -39
24 -55 -3 -8 0 -14 7 -14 7 0 8 -3 2 -8 -12 -8 -13 -42 -2 -60 5 -6 4 -12 -2
-12 -11 0 -9 -19 3 -39 6 -9 5 -12 0 -8 -11 6 -10 -146 1 -163 3 -5 2 -10 -4
-10 -10 0 -5 -45 6 -63 3 -6 1 -7 -4 -4 -12 7 -11 -42 1 -61 4 -7 3 -12 -3
-12 -10 0 -7 -31 4 -50 3 -6 2 -10 -4 -10 -10 0 -7 -31 4 -50 3 -6 2 -10 -4
-10 -11 0 -9 -19 3 -39 6 -10 5 -12 -2 -7 -15 9 -15 1 -1 -26 6 -11 7 -18 2
-15 -8 5 -8 -46 -1 -110 1 -6 10 -10 21 -8 14 3 16 1 8 -9 -8 -9 -7 -13 2 -13
7 0 14 12 15 26 1 14 5 27 10 30 11 9 9 125 -3 133 -6 5 -5 8 4 8 11 0 11 3 1
15 -9 11 -9 15 -1 15 9 0 9 5 1 20 -6 11 -7 20 -1 20 12 0 9 33 -4 42 -6 5 -5
8 3 8 8 0 10 5 6 12 -9 14 -12 58 -4 58 3 0 6 9 6 20 0 11 -4 20 -7 20 -4 0
-4 13 1 29 6 21 5 31 -3 35 -7 2 -7 5 -2 5 8 1 12 76 5 76 -1 0 -3 12 -4 28
-1 15 1 27 5 27 10 0 5 34 -6 42 -6 5 -5 8 3 8 8 0 10 5 6 12 -9 14 -12 58 -4
58 3 0 4 22 3 48 -1 40 3 51 20 62 21 12 21 12 7 -5 -14 -17 -14 -18 8 -6 21
11 25 20 25 56 0 42 -4 56 -13 50 -5 -3 -10 0 -10 7 0 9 -3 9 -10 -2 -6 -10
-10 -11 -10 -2 0 6 -5 12 -11 12 -5 0 -8 -4 -5 -9 4 -5 -2 -8 -11 -6 -10 1
-17 8 -15 14 3 17 -6 13 -17 -6z"/>
<path d="M1126 1435 c4 -8 2 -15 -3 -15 -13 0 -9 -63 5 -68 7 -2 10 -8 6 -13
-3 -5 4 -9 15 -9 19 0 26 -10 22 -32 0 -5 3 -8 9 -8 6 0 6 -10 -1 -27 -7 -19
-6 -28 2 -33 6 -4 7 -10 2 -13 -11 -7 -10 -117 1 -135 4 -7 3 -12 -2 -12 -12
0 -10 -63 3 -72 7 -5 6 -8 0 -8 -12 0 -14 -168 -2 -187 5 -8 3 -13 -3 -13 -13
0 -9 -32 5 -42 7 -5 7 -8 0 -8 -11 0 -11 -191 0 -226 4 -13 13 -21 23 -19 10
2 20 4 23 4 12 2 16 50 6 60 -7 7 -8 11 -1 11 9 0 11 71 4 105 -1 6 -1 12 0
15 6 16 5 52 -2 56 -4 3 -3 14 2 25 6 10 7 19 2 19 -5 0 -9 7 -9 15 0 8 3 15
7 15 5 0 5 71 0 95 -1 6 -1 12 0 15 6 16 5 52 -2 56 -4 3 -4 14 2 24 7 13 6
20 -2 22 -7 3 -8 9 -3 19 12 17 13 78 3 101 -5 9 -4 19 0 22 10 6 9 36 -2 54
-4 7 -2 12 4 12 6 0 8 5 3 13 -11 18 -12 36 -2 43 5 3 7 10 4 15 -12 18 6 31
23 17 13 -11 14 -11 7 1 -6 11 -4 13 8 8 12 -4 14 -2 10 10 -4 10 -2 14 4 10
6 -4 10 9 9 33 -1 31 -5 40 -18 40 -10 0 -18 5 -18 10 0 6 -5 10 -11 10 -5 0
-7 -6 -3 -12 5 -9 2 -9 -9 1 -16 13 -22 8 -18 -13 1 -5 -4 -4 -12 3 -19 15
-60 23 -52 10 8 -12 -2 -12 -25 1 -16 8 -18 8 -14 -5z"/>
<path d="M1980 1439 c-12 -8 -9 -9 10 -5 l25 6 -25 -13 c-23 -11 -25 -18 -25
-77 0 -36 4 -68 10 -72 7 -5 7 -8 0 -8 -12 0 -13 -69 -2 -87 5 -7 5 -13 0 -13
-10 0 -9 -131 1 -148 4 -7 3 -12 -1 -12 -5 0 -8 -43 -6 -95 1 -69 -1 -94 -9
-89 -8 5 -9 1 -5 -10 4 -10 3 -15 -3 -11 -6 3 -10 0 -10 -7 0 -10 -2 -10 -9 1
-6 9 -11 10 -15 2 -4 -6 -12 -8 -18 -5 -6 4 -6 -2 1 -15 9 -16 9 -21 -1 -21
-9 0 -9 -3 2 -10 11 -7 11 -10 2 -10 -7 0 -2 -11 12 -25 14 -14 30 -25 36 -25
11 0 12 -8 14 -104 1 -46 5 -71 14 -74 6 -2 10 -8 7 -12 -6 -10 35 -4 44 6 3
4 -3 4 -14 1 -18 -7 -19 -6 -3 6 10 8 15 17 11 20 -3 4 -2 7 3 7 5 0 9 11 9
25 0 14 -2 25 -5 25 -8 0 -5 44 5 60 5 9 4 11 -3 6 -7 -4 -12 -2 -12 3 0 6 5
11 11 11 5 0 7 5 4 10 -6 9 8 15 29 11 5 -1 6 5 2 14 -8 22 11 9 25 -17 8 -14
8 -18 0 -14 -7 5 -9 1 -5 -8 3 -9 10 -16 15 -16 5 0 9 -5 9 -11 0 -5 -4 -8 -8
-5 -4 2 -8 -23 -7 -57 0 -65 15 -86 44 -63 11 8 13 8 8 -1 -4 -6 -3 -14 2 -17
5 -4 8 2 6 11 -1 10 3 24 9 32 9 12 8 13 -3 6 -11 -6 -12 -5 -5 6 11 19 14 39
5 39 -4 0 -8 7 -8 15 0 8 4 15 9 15 5 0 4 9 -2 20 -6 11 -7 20 -2 20 5 0 8 11
7 25 -2 14 0 25 5 25 4 0 11 7 14 16 4 10 2 13 -7 8 -7 -5 -5 0 3 11 8 11 10
16 3 11 -9 -5 -12 1 -9 23 2 17 0 31 -4 31 -4 0 -10 11 -12 25 -3 14 -1 25 4
25 5 0 4 9 -2 20 -8 15 -8 20 2 20 9 0 9 3 0 12 -6 6 -8 18 -4 27 10 20 9 72
-1 89 -5 7 -3 12 4 12 9 0 9 3 0 14 -7 8 -8 17 -4 19 10 7 10 68 -1 85 -4 7
-2 12 5 12 8 0 8 4 -1 15 -9 11 -9 15 -1 15 7 0 9 5 5 12 -11 18 -12 48 -2 48
5 0 4 9 -2 20 -6 11 -7 20 -2 20 5 0 9 7 9 15 0 8 -4 15 -9 15 -5 0 -4 9 2 19
7 14 6 21 -3 24 -9 4 -8 6 2 6 11 1 11 4 0 18 -12 15 -12 16 1 8 11 -6 10 -3
-3 12 -9 11 -14 22 -11 26 5 5 -21 2 -36 -3 -3 -1 -8 -2 -11 -2 -3 1 -5 -17
-4 -39 1 -21 -3 -39 -7 -39 -5 0 -2 -7 6 -16 19 -18 21 -28 4 -18 -7 5 -9 2
-5 -8 3 -9 0 -21 -6 -27 -9 -9 -8 -10 7 -5 14 5 17 4 12 -4 -14 -23 -18 -64
-5 -56 8 5 9 3 4 -5 -13 -22 -15 -82 -3 -75 7 5 8 2 3 -5 -13 -22 -15 -82 -3
-75 7 5 8 2 3 -6 -12 -20 -13 -64 -1 -72 8 -5 8 -8 0 -8 -13 0 -12 -50 1 -70
5 -9 4 -11 -3 -6 -7 4 -12 3 -12 -3 0 -5 4 -12 10 -16 5 -3 7 -12 4 -20 -4 -8
-11 -12 -17 -8 -6 4 -7 1 -1 -8 14 -23 13 -39 -2 -39 -9 0 -12 -4 -9 -10 3 -5
-1 -10 -9 -10 -9 0 -16 5 -16 11 0 5 -4 7 -10 4 -6 -4 -7 1 -3 11 3 10 2 15
-3 12 -11 -7 -11 43 1 62 5 9 4 11 -3 6 -7 -4 -12 -2 -12 3 0 6 4 11 9 11 6 0
6 12 1 30 -5 17 -6 30 -2 30 4 0 5 36 2 80 -3 44 -1 80 3 80 5 0 5 5 1 11 -9
15 -10 129 -1 129 4 0 4 7 -1 15 -4 9 -5 38 -2 65 3 27 3 47 -1 44 -4 -2 -9 3
-12 11 -4 8 -1 13 6 11 7 -1 9 -1 5 1 -5 3 -8 11 -8 19 0 16 -19 18 -40 3z"/>
<path d="M2294 1432 c-21 -17 -21 -23 -20 -319 0 -165 -2 -299 -5 -297 -4 2
-10 -3 -13 -12 -6 -15 -8 -15 -27 2 -15 14 -20 15 -17 4 2 -8 -2 -14 -9 -13
-6 1 -10 -5 -8 -15 2 -9 4 -21 4 -25 1 -5 5 -5 11 -2 6 3 7 -1 4 -9 -3 -9 -1
-16 6 -16 6 0 9 -4 6 -9 -3 -5 2 -15 11 -22 11 -10 14 -10 9 -2 -5 9 -2 11 9
7 12 -5 13 -9 4 -21 -10 -11 -9 -13 2 -11 11 2 14 -11 12 -66 -1 -38 2 -76 7
-85 11 -21 60 -23 52 -2 -4 10 -1 12 9 6 11 -6 11 -5 2 5 -7 8 -8 22 -3 41 5
17 5 27 0 24 -9 -5 -4 66 5 94 3 8 13 11 26 8 18 -5 18 -3 7 11 -8 12 -5 11
10 -3 14 -11 21 -26 19 -37 -3 -10 -2 -18 2 -18 4 0 5 -22 1 -50 -4 -29 -2
-50 3 -50 5 0 4 -7 -3 -16 -8 -8 -9 -14 -4 -13 21 4 26 -2 13 -18 -7 -10 -9
-15 -5 -11 5 4 16 2 25 -4 9 -7 13 -9 9 -4 -3 4 1 15 11 25 14 14 16 33 15
106 -3 108 -5 120 -27 145 -11 14 -13 20 -4 20 8 0 9 3 1 8 -16 11 -25 42 -13
42 6 0 9 6 6 14 -3 8 -2 16 4 18 8 3 12 16 23 73 1 6 5 15 9 22 4 6 1 14 -5
16 -9 4 -10 8 -3 14 6 5 10 63 9 143 0 83 3 141 10 149 8 11 8 13 0 8 -7 -4
-11 7 -11 33 0 22 5 40 11 40 7 0 8 3 1 8 -6 4 -11 14 -11 22 -1 22 -23 68
-24 50 0 -12 -2 -12 -9 -2 -6 10 -11 9 -22 -4 -12 -16 -12 -17 1 -9 12 7 13 6
4 -6 -17 -21 -23 -67 -10 -74 7 -3 7 -7 1 -10 -6 -3 -8 -63 -5 -165 3 -88 2
-160 -2 -160 -3 0 -5 -8 -3 -17 1 -10 -3 -24 -9 -32 -8 -11 -8 -13 1 -8 8 5 9
-1 1 -25 -19 -57 -43 -101 -53 -97 -12 5 -14 198 -2 206 4 2 4 9 0 16 -9 16
-10 58 -1 63 5 3 4 13 -1 23 -6 10 -6 23 -1 31 6 9 5 17 -2 21 -7 4 -6 14 2
29 8 15 8 20 1 16 -15 -10 -14 7 1 22 7 7 8 12 3 12 -11 0 -11 82 0 99 3 6 3
11 -2 11 -4 0 -9 12 -10 26 -2 37 -15 46 -39 26z m-70 -647 c-4 -8 -11 -15
-16 -15 -6 0 -5 6 2 15 7 8 14 15 16 15 2 0 1 -7 -2 -15z"/>
<path d="M2853 1434 c-7 -7 -13 -18 -13 -25 0 -6 -7 -8 -16 -5 -9 3 -18 6 -20
6 -3 0 -3 4 0 9 3 5 -1 11 -9 15 -8 3 -19 -2 -24 -12 -8 -16 -6 -107 4 -154 2
-10 -2 -18 -8 -18 -7 0 -5 -5 3 -10 11 -7 11 -10 2 -10 -7 0 -11 -4 -8 -8 3
-5 6 -25 8 -45 1 -21 6 -37 11 -37 5 0 6 7 3 16 -6 15 -4 15 11 3 10 -7 15 -9
11 -5 -4 5 -2 16 5 24 8 11 8 13 0 9 -7 -5 -9 0 -5 15 4 16 2 19 -9 14 -8 -4
-7 -1 3 6 12 10 13 19 7 31 -7 11 -6 24 2 38 6 12 7 19 1 15 -5 -3 -13 1 -16
9 -4 10 2 19 17 25 20 8 20 9 2 10 -15 0 -17 3 -7 9 11 6 10 12 -5 26 -17 18
-17 18 7 12 14 -4 29 -7 34 -7 5 0 3 -7 -4 -15 -7 -8 -8 -15 -3 -15 11 0 11
-90 0 -107 -5 -7 -5 -19 -1 -25 10 -16 13 -48 4 -43 -4 2 -7 -2 -7 -10 0 -8 5
-11 10 -8 6 4 8 0 5 -9 -4 -10 0 -14 13 -13 10 1 22 4 26 8 11 11 11 91 0 105
-6 8 -6 12 2 12 14 0 9 33 -7 53 -10 12 -10 17 -1 23 8 4 9 3 5 -4 -4 -7 -3
-12 2 -12 4 0 8 22 8 49 -1 47 -1 49 -25 40 -21 -9 -22 -8 -11 6 16 19 9 28
-7 9z m34 -139 c0 -8 -4 -12 -9 -9 -4 3 -8 9 -8 15 0 5 4 9 8 9 5 0 9 -7 9
-15z m3 -49 c0 -3 -4 -8 -10 -11 -5 -3 -10 -1 -10 4 0 6 5 11 10 11 6 0 10 -2
10 -4z"/>
<path d="M972 1417 c6 -13 7 -17 0 -13 -12 7 -9 -74 3 -94 5 -9 4 -11 -4 -6
-12 8 -9 -33 5 -55 4 -7 3 -9 -3 -6 -10 6 -10 -9 -4 -90 1 -7 5 -13 11 -13 5
0 6 8 3 17 -5 13 -2 15 11 10 10 -4 15 -3 11 3 -4 6 3 9 17 7 13 -2 23 -9 23
-15 0 -19 14 -25 21 -8 3 9 11 13 17 9 6 -3 7 -1 3 6 -4 6 -12 8 -18 5 -7 -4
-7 0 -1 12 5 11 8 53 7 94 -1 41 -2 92 -3 113 -1 32 -4 37 -23 36 -13 0 -18
-3 -11 -5 8 -4 9 -13 3 -29 -5 -12 -6 -25 -3 -28 7 -8 -20 -3 -33 5 -6 4 -10
20 -9 35 1 21 -3 29 -16 29 -14 0 -15 -4 -7 -19z m32 -69 c-5 -10 -4 -10 6 -1
7 6 19 9 27 6 12 -5 12 -7 1 -14 -10 -7 -10 -9 0 -9 6 0 12 -5 12 -11 0 -5 -4
-7 -10 -4 -5 3 -10 1 -10 -4 0 -6 6 -11 13 -12 8 0 8 -2 -2 -6 -11 -5 -11 -7
0 -14 11 -7 11 -9 1 -9 -8 0 -10 -5 -6 -12 10 -16 13 -48 4 -48 -15 0 -19 14
-8 29 10 12 8 12 -8 -1 -25 -21 -41 -24 -25 -4 9 10 9 16 1 21 -8 5 -8 10 0
20 8 10 7 14 -2 17 -11 4 -11 8 0 20 10 13 10 17 1 20 -7 2 -9 10 -5 16 10 16
19 15 10 0z m31 -148 c17 -19 17 -19 -4 -15 -34 6 -45 16 -30 26 8 5 14 9 15
9 0 0 9 -9 19 -20z"/>
<path d="M2819 1273 c-13 -16 -12 -17 4 -4 9 7 17 15 17 17 0 8 -8 3 -21 -13z"/>
<path d="M1615 820 c-4 -6 -11 -7 -17 -4 -7 4 -8 2 -4 -5 6 -9 11 -9 22 0 14
11 18 19 10 19 -3 0 -8 -5 -11 -10z"/>
<path d="M2661 484 c0 -11 3 -14 6 -6 3 7 2 16 -1 19 -3 4 -6 -2 -5 -13z"/>
<path d="M223 411 c-23 -19 -32 -38 -13 -26 6 3 10 1 10 -4 0 -6 -5 -11 -11
-11 -5 0 -7 -4 -4 -10 3 -5 1 -10 -4 -10 -6 0 -11 5 -11 12 0 17 -13 0 -17
-22 -1 -10 2 -22 7 -25 6 -3 10 1 10 10 0 11 6 15 18 11 19 -6 22 2 22 52 0
14 4 20 11 17 6 -4 8 -9 5 -12 -3 -3 -1 -15 5 -26 7 -13 7 -17 1 -13 -6 3 -13
2 -16 -3 -4 -5 3 -12 14 -16 11 -4 18 -10 15 -15 -3 -5 4 -8 15 -7 25 2 26 12
3 27 -15 9 -14 10 6 4 15 -4 21 -2 17 4 -3 6 -2 14 4 17 8 5 8 11 1 19 -6 7
-8 16 -4 20 4 4 -1 4 -11 0 -14 -5 -17 -4 -11 5 6 10 3 11 -14 2 -19 -11 -25
-8 -22 12 1 10 -1 9 -26 -12z m44 -26 c0 -8 -4 -12 -9 -9 -5 3 -6 10 -3 15 9
13 12 11 12 -6z m38 -5 c3 -5 1 -10 -4 -10 -6 0 -11 5 -11 10 0 6 2 10 4 10 3
0 8 -4 11 -10z"/>
<path d="M492 424 c4 -4 0 -13 -10 -21 -10 -9 -11 -11 -2 -7 12 7 13 5 3 -8
-7 -8 -9 -19 -5 -23 4 -5 1 -5 -6 -1 -7 4 -10 11 -8 15 3 4 0 13 -6 21 -8 12
-9 12 -4 -2 5 -17 -3 -22 -21 -15 -5 1 -7 6 -5 10 1 5 -2 6 -8 2 -8 -5 -7 -11
1 -21 6 -8 10 -16 8 -18 -6 -6 -33 17 -45 39 -6 10 -17 21 -25 23 -11 3 -11 2
1 -7 12 -8 10 -12 -10 -20 -14 -5 -19 -10 -12 -10 6 -1 12 -6 12 -12 0 -5 -6
-7 -12 -3 -10 6 -10 4 0 -8 7 -8 10 -23 6 -32 -3 -9 -1 -16 6 -16 6 0 8 -5 5
-10 -9 -14 -21 -5 -28 20 -3 13 -1 18 6 13 7 -4 6 1 -2 10 -13 17 -26 24 -18
10 8 -13 -12 -55 -22 -48 -5 3 -12 1 -16 -5 -3 -5 -11 -10 -16 -10 -6 0 -8 4
-5 8 2 4 1 14 -4 22 -7 11 -11 11 -24 1 -13 -11 -16 -11 -16 0 -1 10 -4 9 -11
-3 -8 -15 -13 -16 -29 -6 -14 9 -16 16 -8 25 7 9 7 13 -1 13 -10 0 -15 -14
-12 -34 1 -5 -5 -6 -13 -3 -11 4 -13 1 -9 -10 4 -11 2 -14 -5 -9 -12 7 -9 -25
4 -46 4 -7 3 -8 -4 -4 -15 9 -16 -18 -3 -43 7 -13 6 -18 -5 -18 -7 0 -14 7
-15 16 0 11 -2 12 -6 3 -6 -16 16 -44 29 -36 5 3 15 1 23 -6 15 -12 31 3 20
20 -3 6 -2 10 4 10 5 0 8 11 7 24 -4 36 8 51 25 30 12 -16 12 -17 -4 -11 -11
4 -16 3 -12 -4 4 -6 13 -8 21 -5 8 3 14 -1 14 -10 0 -8 5 -12 11 -8 7 4 0 17
-17 35 -27 28 -27 29 -9 49 21 23 34 18 15 -5 -11 -13 -10 -19 5 -33 16 -16
17 -16 7 4 -10 20 -7 34 7 34 4 0 7 -20 7 -45 1 -36 -2 -46 -18 -51 -21 -6
-17 -16 7 -20 8 -1 15 2 15 7 0 5 5 9 11 9 8 0 8 -4 0 -14 -7 -8 -21 -13 -31
-11 -11 2 -20 -4 -23 -16 -4 -16 -3 -18 9 -8 7 6 21 9 29 5 9 -3 13 -2 10 4
-4 6 4 14 17 19 13 6 19 10 15 10 -5 1 -1 8 8 17 9 10 13 20 8 23 -4 3 -9 12
-11 20 -3 12 0 12 12 1 12 -9 16 -9 16 -1 0 7 5 9 10 6 6 -4 7 -11 4 -17 -4
-6 -2 -8 3 -5 6 4 14 0 17 -9 3 -8 2 -13 -3 -10 -5 3 -11 -3 -14 -14 -6 -22 8
-28 16 -7 4 8 6 9 6 0 1 -6 -7 -20 -16 -29 -17 -17 -17 -18 0 -11 10 4 25 7
33 7 8 0 14 5 14 11 0 5 -5 7 -10 4 -6 -4 -9 -1 -8 6 4 19 40 47 54 42 7 -2
15 1 19 7 3 6 3 10 -2 9 -4 -1 -15 -1 -23 0 -13 1 -13 2 0 11 13 9 13 10 0 10
-13 0 -13 1 0 10 13 8 12 10 -2 10 -10 0 -18 5 -18 11 0 5 4 8 9 4 5 -3 12 -1
16 4 3 6 -3 15 -14 21 -13 7 -22 7 -26 0 -3 -5 -3 -10 2 -10 4 0 1 -5 -7 -10
-13 -9 -13 -11 0 -20 13 -8 13 -10 1 -10 -11 0 -9 -4 5 -15 19 -15 19 -15 -1
-8 -18 6 -18 5 -6 -10 20 -25 4 -20 -27 8 l-26 25 32 33 c29 30 79 47 64 22
-3 -5 2 -4 11 4 19 15 23 26 5 15 -8 -5 -9 -2 -5 10 4 10 7 20 7 22 0 2 5 4
11 4 5 0 7 -5 4 -10 -4 -6 -3 -10 2 -9 18 3 33 -2 33 -11 0 -5 -6 -9 -12 -7
-7 1 -12 -4 -10 -10 1 -7 -3 -13 -10 -13 -6 0 -3 -6 7 -14 14 -10 25 -11 38
-4 26 14 28 6 4 -17 -11 -11 -17 -15 -14 -10 3 6 -2 11 -12 11 -23 0 -23 -21
1 -43 16 -15 18 -15 18 0 0 9 10 21 21 28 12 6 19 7 16 2 -3 -5 3 -9 14 -9 19
0 19 1 -2 17 -15 11 -18 18 -10 23 6 4 9 12 6 17 -4 5 3 9 15 9 12 0 19 -4 15
-9 -9 -15 15 -25 28 -12 9 9 8 11 -6 5 -12 -4 -17 -2 -15 7 2 9 -6 14 -22 14
-15 0 -24 -5 -22 -13 1 -8 -2 -11 -7 -7 -13 7 -3 35 13 35 6 0 4 5 -4 10 -8 5
-10 10 -5 10 17 0 36 38 23 46 -6 4 -8 3 -5 -3 4 -6 -1 -17 -10 -24 -14 -12
-15 -11 -9 7 5 16 0 23 -21 33 -16 7 -25 9 -21 5z m-82 -69 c6 -3 10 -12 10
-18 0 -7 -4 -6 -10 3 -9 13 -13 12 -29 -8 -12 -13 -22 -18 -26 -12 -3 5 -2 10
4 10 5 0 8 9 6 19 -3 15 1 19 16 16 10 -2 24 -7 29 -10z m90 -51 c-14 -16 -23
-12 -26 12 -2 12 1 13 12 3 11 -9 14 -8 15 7 0 11 3 14 6 6 3 -7 -1 -19 -7
-28z m-325 -4 c5 -8 12 -7 23 2 9 7 5 -2 -8 -19 -27 -37 -32 -41 -23 -16 4 11
3 14 -5 9 -7 -4 -12 -1 -13 6 0 10 -2 10 -6 1 -2 -7 -9 -13 -15 -13 -6 0 -3 9
7 20 20 22 31 25 40 10z m151 -25 c-9 -7 -12 -16 -8 -21 4 -4 -1 -2 -10 5 -15
11 -21 11 -35 0 -11 -10 -14 -10 -9 -1 4 7 2 12 -5 12 -7 0 -4 6 6 14 11 8 23
12 27 10 4 -2 10 0 13 6 5 8 11 7 22 -1 13 -12 13 -14 -1 -24z m164 -25 c0 -5
-2 -10 -4 -10 -3 0 -8 5 -11 10 -3 6 -1 10 4 10 6 0 11 -4 11 -10z m-336 -76
c3 -8 2 -12 -4 -9 -6 3 -10 10 -10 16 0 14 7 11 14 -7z"/>
<path d="M150 296 c0 -2 7 -7 16 -10 8 -3 12 -2 9 4 -6 10 -25 14 -25 6z"/>
<path d="M305 289 c-4 -6 -4 -13 -1 -16 3 -4 6 -1 6 6 0 7 5 9 12 5 7 -4 8 -3
4 4 -9 15 -13 15 -21 1z"/>
<path d="M951 405 c-24 -24 -24 -24 -5 -42 11 -10 14 -14 7 -9 -8 5 -13 4 -13
-3 0 -7 -5 -9 -12 -5 -10 6 -9 3 0 -8 20 -25 52 -19 52 10 0 13 4 21 9 18 5
-4 7 3 4 14 -3 11 -9 20 -14 20 -5 0 -6 7 -3 15 8 20 4 18 -25 -10z"/>
<path d="M1027 417 c-3 -8 -1 -20 4 -28 8 -12 10 -12 19 1 6 10 6 16 0 18 -6
2 -8 8 -4 13 3 5 1 9 -4 9 -6 0 -12 -6 -15 -13z"/>
<path d="M1422 423 c-10 -4 -10 -8 0 -21 10 -12 10 -14 1 -8 -8 4 -13 2 -13
-6 0 -9 -3 -9 -10 2 -5 8 -10 10 -10 4 0 -16 25 -35 35 -26 5 4 5 2 1 -5 -3
-6 1 -16 10 -21 10 -6 12 -12 6 -16 -5 -3 -13 1 -16 10 -3 8 -11 12 -17 8 -8
-5 -9 -3 -4 6 5 9 4 11 -3 6 -7 -4 -12 -3 -12 3 0 6 -10 16 -22 22 -20 10 -19
8 5 -16 15 -15 27 -35 27 -44 0 -14 2 -14 10 -1 6 9 10 10 10 3 0 -7 -8 -17
-17 -22 -10 -6 -12 -11 -5 -11 7 0 12 -14 12 -36 0 -25 3 -33 13 -28 9 6 9 5
0 -8 -7 -8 -9 -19 -5 -23 4 -5 1 -5 -6 -1 -7 4 -10 11 -8 15 3 4 -1 8 -9 8
-19 0 -20 1 16 -38 17 -19 28 -28 23 -20 -5 11 -3 13 9 8 9 -3 19 -2 22 4 4 5
11 6 17 3 7 -4 8 -2 4 4 -5 8 1 12 16 12 18 0 20 -2 8 -10 -13 -8 -12 -10 4
-10 16 0 17 -2 5 -18 -7 -9 -9 -14 -5 -10 5 4 15 3 23 -3 10 -9 13 -8 13 0 0
7 4 10 9 6 5 -3 12 -1 16 4 3 6 -4 8 -15 6 -11 -2 -18 0 -15 6 4 5 13 9 21 9
12 0 12 3 -1 24 -13 19 -13 25 -3 29 10 4 10 6 -1 6 -8 1 -19 8 -25 17 -10 13
-24 19 -56 23 -3 1 -6 10 -7 21 -1 12 3 18 9 14 7 -4 7 0 -1 13 -14 28 -3 35
29 18 22 -11 27 -11 27 0 0 8 -7 11 -16 7 -14 -5 -14 -3 -2 11 7 10 9 17 3 17
-6 0 -12 -6 -15 -12 -3 -10 -8 -10 -21 1 -9 8 -15 19 -13 26 5 12 -13 39 -28
41 -6 1 -16 -1 -23 -3z m50 -67 c7 4 8 2 4 -5 -9 -13 -26 -5 -25 12 0 9 2 8 6
-1 2 -6 10 -9 15 -6z m-11 -45 c-9 -6 -10 -11 -2 -15 6 -4 9 -11 6 -16 -6 -10
29 -32 37 -24 3 2 11 -3 19 -13 12 -15 12 -16 -1 -8 -20 12 -41 15 -35 5 3 -5
-1 -11 -7 -14 -7 -3 -2 -3 11 0 17 4 22 2 19 -7 -3 -8 -13 -13 -23 -11 -9 2
-14 -1 -11 -7 4 -5 1 -13 -6 -17 -18 -11 -48 -12 -48 -2 0 4 6 8 14 8 7 0 19
6 25 14 9 11 6 17 -15 30 -14 10 -23 23 -21 31 3 7 2 16 -1 21 -4 5 -6 8 -4 7
2 -1 13 7 25 17 11 11 23 17 26 14 3 -3 -1 -9 -8 -13z"/>
<path d="M1438 293 c-7 -14 -3 -38 6 -40 5 -1 13 -7 18 -15 7 -9 8 -7 3 7 -4
11 -8 25 -9 32 -3 17 -13 26 -18 16z"/>
<path d="M1730 421 c0 -4 -8 -8 -17 -8 -36 0 -44 -3 -37 -14 4 -8 9 -7 15 2 6
10 9 10 9 2 0 -7 -8 -17 -17 -22 -12 -7 -14 -10 -4 -11 10 0 12 -8 7 -32 -6
-29 -5 -30 7 -14 8 11 19 16 25 13 15 -10 33 48 19 62 -8 8 -8 11 1 11 7 0 12
-3 13 -7 0 -5 2 -19 3 -33 2 -14 6 -33 11 -42 6 -16 2 -20 -21 -17 -4 0 -10
-5 -14 -11 -5 -9 -9 -9 -14 -1 -4 6 -2 11 4 11 6 0 8 5 5 10 -3 6 -11 10 -17
10 -6 0 -8 -3 -5 -7 4 -3 2 -12 -4 -20 -6 -7 -8 -13 -5 -13 4 0 2 -9 -4 -20
-9 -16 -8 -18 5 -14 11 5 14 2 9 -12 -4 -11 -10 -23 -13 -29 -8 -14 -11 -38
-4 -31 4 3 12 1 20 -6 10 -8 17 -8 26 1 9 10 8 11 -8 6 -16 -5 -17 -5 -5 3 17
13 33 5 27 -12 -7 -18 8 -41 17 -27 4 6 3 11 -3 11 -6 0 -8 7 -5 15 6 14 8 13
20 -2 10 -14 12 -14 11 -3 -2 8 -6 21 -11 28 -7 12 -4 12 15 1 23 -11 23 -11
9 6 -14 17 -13 17 10 11 l25 -7 -24 14 c-19 11 -20 15 -8 20 9 3 18 1 21 -6 2
-7 5 -5 5 5 1 13 -6 16 -26 13 -16 -2 -35 -4 -43 -4 -13 -1 -13 -2 0 -11 12
-7 12 -10 1 -10 -8 0 -11 -6 -7 -15 4 -13 2 -13 -14 -5 -23 12 -33 13 -25 1 3
-5 1 -12 -4 -15 -5 -4 -8 2 -6 11 1 11 10 17 21 16 18 -1 18 -1 -1 14 -13 10
-15 14 -5 12 8 -1 27 4 42 11 22 10 25 16 17 27 -9 10 -7 20 6 39 14 21 14 26
3 22 -8 -4 -15 -1 -15 6 0 7 6 13 14 13 12 0 17 -11 14 -29 0 -4 8 -12 19 -18
24 -13 16 -33 -9 -25 -12 3 -17 -1 -17 -15 0 -21 11 -26 21 -10 4 6 11 8 16 5
5 -4 9 0 9 7 0 8 9 14 19 14 21 0 21 -20 -1 -55 -10 -17 -10 -25 0 -42 12 -19
12 -19 -10 -8 -20 11 -22 10 -10 -3 7 -9 12 -20 11 -24 -5 -30 18 -42 38 -19
4 4 2 5 -4 1 -8 -4 -13 -1 -13 9 0 10 5 13 12 9 6 -4 8 -3 4 4 -3 6 2 18 11
28 17 17 17 18 1 11 -23 -8 -24 9 -2 21 11 6 13 11 5 16 -6 4 -11 2 -11 -3 0
-6 -8 -11 -17 -11 -14 0 -14 3 4 23 11 12 18 29 15 37 -2 8 -3 13 -1 10 2 -3
13 -16 24 -30 16 -19 16 -22 3 -11 -11 8 -18 9 -18 3 0 -6 8 -16 18 -21 11 -7
13 -10 3 -11 -10 0 -11 -3 -2 -13 6 -8 8 -17 4 -20 -3 -4 -1 -7 6 -7 8 0 11
-7 7 -15 -4 -12 -2 -13 13 -6 10 6 22 7 27 3 5 -4 3 1 -4 10 -11 14 -10 18 5
27 10 6 13 11 7 11 -6 0 -11 7 -11 15 0 9 6 14 13 11 8 -3 11 0 7 10 -3 10 0
12 10 8 9 -3 13 -13 9 -26 -3 -11 1 -24 9 -29 8 -5 9 -9 3 -9 -6 0 -11 -7 -11
-15 0 -8 4 -12 9 -9 7 5 12 -10 9 -29 -1 -5 3 -6 8 -3 5 4 12 1 14 -4 3 -6 4
-5 3 2 -2 7 3 25 10 40 10 20 11 29 3 34 -8 4 -4 13 12 26 18 14 20 17 5 11
-15 -5 -17 -3 -10 8 12 20 14 40 3 33 -5 -3 -9 0 -9 7 0 7 -3 9 -6 6 -4 -4 -1
-13 6 -22 7 -8 8 -15 3 -15 -6 0 -15 -10 -21 -22 -11 -22 -11 -22 -7 5 3 22 1
26 -8 18 -8 -6 -18 -6 -27 -1 -8 5 -19 5 -25 0 -6 -5 -18 -8 -26 -7 -21 4 -52
35 -45 46 3 5 -4 20 -15 35 -11 14 -15 26 -9 26 6 0 8 5 5 10 -4 6 -11 7 -17
4 -7 -5 -9 3 -5 22 3 16 4 23 1 16 -3 -6 -10 -10 -15 -7 -5 4 -6 -2 -2 -11 4
-11 3 -15 -5 -10 -7 4 -9 -2 -6 -18 3 -20 0 -24 -16 -23 -22 1 -26 12 -7 21 6
3 3 4 -8 3 -14 -1 -21 6 -26 28 l-7 30 -2 -30 c-1 -16 -4 -23 -6 -15 -5 17
-44 45 -44 31z m0 -46 c0 -5 -5 -3 -10 5 -5 8 -10 20 -10 25 0 6 5 3 10 -5 5
-8 10 -19 10 -25z m130 -30 c-9 -11 -9 -15 -1 -15 7 0 9 -5 5 -12 -4 -7 -3 -8
5 -4 6 4 9 12 6 17 -4 5 -1 9 4 9 17 0 13 -27 -5 -34 -19 -7 -37 2 -28 15 3 5
0 8 -7 7 -6 -2 -14 3 -16 10 -3 7 1 10 11 6 10 -4 18 0 22 10 4 9 9 15 12 12
3 -3 -1 -12 -8 -21z m-122 -61 c6 -1 12 2 12 7 0 6 5 7 10 4 6 -3 10 -11 10
-16 0 -6 -4 -8 -9 -5 -5 3 -12 -1 -15 -10 -7 -19 -38 -4 -42 20 -1 10 2 13 9
9 7 -4 18 -8 25 -9z m295 -39 c-3 -9 -8 -14 -10 -11 -3 3 -2 9 2 15 9 16 15
13 8 -4z"/>
<path d="M1941 422 c-1 -7 -5 -10 -11 -7 -6 4 -7 -1 -3 -11 5 -12 3 -15 -6 -9
-10 6 -11 3 -2 -13 8 -15 8 -23 -1 -28 -7 -5 -8 -3 -3 6 5 9 4 11 -3 6 -9 -5
-8 -13 3 -30 8 -12 12 -26 8 -31 -5 -4 -2 -5 5 -1 10 6 16 -4 14 -25 -1 -11
33 -6 46 8 8 7 18 10 24 7 6 -4 3 7 -8 25 -10 17 -23 31 -29 31 -5 0 -3 5 5
10 11 7 11 10 2 10 -7 0 -12 6 -11 13 3 24 -1 38 -10 33 -5 -4 -12 0 -14 6 -4
10 -6 10 -6 0z m9 -95 c0 -8 7 -14 15 -14 8 0 15 4 15 9 0 5 5 6 10 3 6 -3 10
-11 10 -16 0 -6 -4 -7 -10 -4 -5 3 -10 1 -10 -4 0 -21 -27 -11 -38 14 -7 15
-8 25 -2 25 6 0 10 -6 10 -13z"/>
<path d="M2034 418 c-3 -4 -2 -8 2 -8 4 0 -1 -10 -12 -22 -10 -12 -13 -18 -6
-14 14 8 17 -10 2 -19 -5 -3 -10 -12 -10 -18 0 -7 4 -6 10 3 10 16 13 10 13
-32 0 -10 3 -15 8 -13 4 3 6 17 3 31 -3 16 -1 23 6 19 5 -3 10 0 11 7 0 7 2
21 4 31 2 9 -1 17 -7 17 -7 0 -7 5 1 13 8 10 7 14 -5 14 -8 0 -17 -4 -20 -9z
m26 -42 c0 -2 -8 -10 -17 -17 -16 -13 -17 -12 -4 4 13 16 21 21 21 13z"/>
<path d="M2470 415 c-6 -8 -9 -19 -5 -25 3 -5 1 -10 -5 -10 -6 0 -9 -4 -6 -8
10 -16 15 -62 6 -57 -5 3 -12 0 -16 -6 -4 -8 -3 -9 4 -5 15 9 16 -6 2 -22 -7
-9 -7 -9 2 -2 19 16 32 12 18 -5 -11 -13 -10 -14 4 -9 19 7 20 16 4 32 -8 8
-9 12 -1 12 6 0 10 8 8 18 -1 9 5 26 14 36 15 18 15 19 -3 12 -15 -5 -17 -4
-7 8 8 10 9 16 1 21 -6 3 -8 11 -5 16 9 14 -1 11 -15 -6z"/>
<path d="M2790 421 c0 -6 6 -11 13 -11 8 0 7 -4 -3 -10 -9 -6 -10 -10 -3 -10
19 0 24 17 8 30 -10 9 -15 9 -15 1z"/>
<path d="M1288 413 c-10 -2 -18 -9 -18 -14 0 -6 5 -7 11 -3 6 3 3 -5 -6 -20
-10 -15 -20 -24 -23 -22 -3 3 0 12 7 20 9 11 8 15 -3 19 -11 4 -13 1 -9 -11 6
-15 5 -15 -10 -3 -9 7 -14 18 -10 24 3 6 1 7 -6 3 -9 -6 -9 -11 0 -22 14 -17
-2 -19 -21 -1 -11 9 -11 8 0 -7 14 -18 13 -18 -10 -12 -21 6 -22 5 -7 -4 9 -6
21 -9 25 -6 5 3 9 -1 9 -8 0 -8 -6 -12 -12 -9 -7 2 -15 -3 -19 -13 -5 -14 -4
-15 8 -5 11 9 15 8 20 -5 9 -22 8 -26 -6 -18 -6 4 -8 3 -4 -4 3 -6 2 -14 -4
-17 -8 -5 -7 -11 1 -21 10 -12 9 -13 -5 -8 -14 5 -15 3 -7 -19 5 -14 7 -28 3
-31 -3 -4 -7 -17 -8 -29 -2 -12 0 -16 3 -9 4 10 8 10 21 0 12 -10 14 -10 8 0
-4 7 -2 12 8 12 8 0 18 9 21 21 7 20 7 20 21 2 13 -16 13 -16 8 0 -3 9 -1 17
5 17 6 0 11 5 11 11 0 6 -6 9 -14 6 -8 -3 -22 0 -32 8 -16 12 -16 12 8 10 15
-2 33 -6 40 -10 7 -3 4 0 -6 9 -10 8 -22 13 -26 11 -4 -2 -7 8 -7 24 0 17 6
28 14 28 9 0 11 -8 8 -21 -4 -14 0 -11 10 7 9 16 14 31 11 35 -3 3 -6 0 -6 -7
0 -7 -5 -9 -12 -4 -7 4 -19 8 -26 9 -20 3 -25 11 -13 19 6 3 11 1 11 -6 0 -8
4 -8 15 1 12 10 18 10 30 0 17 -14 21 0 4 17 -7 7 -8 17 -3 25 7 11 15 40 11
37 -1 -1 -10 -3 -19 -6z m-57 -66 c-10 -9 -11 -8 -5 6 3 10 9 15 12 12 3 -3 0
-11 -7 -18z m8 -33 c4 3 7 -7 6 -21 0 -20 -5 -27 -23 -28 -20 -2 -21 0 -7 15
9 10 14 23 12 31 -2 8 -2 11 0 6 3 -4 8 -5 12 -3z m-9 -129 c0 -7 -30 -13 -34
-7 -3 4 4 9 15 9 10 1 19 0 19 -2z"/>
<path d="M2263 398 c-10 -12 -12 -18 -5 -14 6 4 12 2 12 -4 0 -6 4 -9 8 -6 4
2 9 -5 9 -16 2 -20 1 -20 -12 -2 -13 18 -14 18 -12 -3 1 -13 5 -23 10 -23 4 0
5 -4 2 -10 -3 -6 4 -10 17 -10 18 0 20 -2 8 -9 -8 -6 -18 -7 -24 -4 -5 3 -6 1
-2 -5 5 -8 1 -10 -10 -5 -11 4 -15 3 -10 -5 3 -6 15 -10 26 -9 10 1 17 4 14 8
-2 4 3 9 11 13 8 3 12 12 9 21 -3 8 -11 12 -18 8 -8 -5 -8 -3 1 8 6 8 11 18
11 24 0 5 6 11 14 13 9 2 8 0 -2 -7 -13 -10 -13 -11 0 -11 12 0 12 -2 2 -9
-10 -6 -10 -10 3 -21 13 -11 14 -10 9 5 -6 14 -4 16 7 10 11 -7 12 -6 3 6 -6
8 -10 22 -9 31 2 11 -2 15 -11 11 -8 -3 -14 1 -14 10 0 24 -27 27 -47 5z m31
4 c3 -5 -1 -9 -9 -9 -8 0 -12 4 -9 9 3 4 7 8 9 8 2 0 6 -4 9 -8z"/>
<path d="M2547 404 c5 -13 3 -15 -8 -9 -11 7 -11 5 1 -10 10 -12 10 -16 2 -11
-10 6 -12 -1 -10 -28 1 -19 8 -38 16 -41 7 -3 10 -9 7 -15 -3 -6 1 -7 9 -4 9
3 16 1 16 -6 0 -6 5 -8 12 -4 6 4 8 3 4 -4 -8 -13 -61 0 -62 16 -1 7 -3 15 -4
20 -1 4 -2 9 -2 13 0 3 -7 10 -17 16 -14 9 -18 8 -18 -3 0 -7 4 -11 8 -9 4 3
9 -2 12 -10 4 -10 1 -12 -10 -8 -12 5 -14 1 -9 -15 5 -15 1 -24 -14 -32 -11
-6 -24 -8 -29 -6 -5 3 -11 -1 -15 -9 -3 -8 -1 -15 5 -15 5 0 4 -6 -3 -14 -18
-20 -32 -2 -18 23 6 12 7 21 3 20 -21 -4 -33 2 -27 13 4 6 3 8 -3 5 -6 -4 -14
0 -17 9 -9 23 -8 26 7 17 18 -11 36 -12 42 -3 3 5 -3 7 -15 5 -11 -2 -22 0
-25 6 -4 5 4 9 17 9 21 1 21 2 5 11 -15 9 -16 13 -6 25 10 12 9 18 -3 30 -13
13 -16 12 -32 -5 -11 -12 -15 -25 -10 -33 12 -18 12 -32 -1 -40 -6 -5 -5 -11
4 -17 8 -5 10 -14 6 -21 -6 -9 -4 -11 5 -5 9 5 11 4 6 -4 -4 -6 -12 -9 -17 -6
-5 4 -9 -2 -10 -12 0 -10 -3 -13 -6 -5 -2 6 -9 12 -14 12 -6 0 -6 -7 -1 -17 5
-10 7 -24 4 -32 -3 -8 0 -11 7 -7 7 5 9 1 4 -11 -6 -16 -5 -17 12 -3 10 8 21
13 24 12 3 -2 15 -9 26 -15 18 -9 19 -9 6 7 -12 14 -12 16 3 10 9 -3 23 -1 31
6 8 7 15 9 15 5 0 -4 -8 -14 -17 -22 -10 -8 -13 -12 -6 -9 6 4 14 -2 16 -11 4
-17 5 -17 6 -1 1 11 6 15 16 12 8 -4 12 -11 8 -18 -4 -6 1 -5 10 3 13 10 14
17 7 26 -8 9 -8 15 0 20 5 3 10 11 10 16 0 6 -5 7 -10 4 -6 -4 -9 -1 -8 7 7
31 83 42 83 12 0 -5 4 -15 8 -21 5 -7 6 -14 3 -14 -3 -1 -9 -2 -13 -3 -5 -1
-14 -5 -20 -9 -8 -5 -13 -4 -13 3 0 6 7 13 15 16 11 5 12 8 2 18 -14 15 -47
17 -47 3 0 -5 8 -6 18 -2 13 5 14 3 5 -6 -6 -6 -9 -19 -6 -28 4 -12 3 -13 -5
-2 -7 9 -12 10 -16 2 -7 -10 6 -16 28 -12 5 1 6 -5 3 -13 -4 -9 -1 -18 5 -22
7 -5 8 -2 3 6 -6 10 -4 12 8 7 10 -4 16 -2 14 5 -1 6 4 13 12 16 8 2 11 0 7
-6 -3 -5 1 -13 9 -16 11 -4 19 3 27 22 6 15 11 30 10 33 0 3 12 6 28 6 24 0
26 -2 14 -14 -16 -16 -19 -37 -5 -28 5 3 13 0 17 -6 4 -7 3 -9 -4 -5 -6 4 -10
-1 -9 -13 0 -11 4 -18 8 -15 4 2 9 1 12 -3 2 -5 2 -2 0 6 -2 9 2 11 13 7 14
-5 15 -4 4 9 -10 12 -10 15 2 15 8 0 20 -6 28 -12 12 -11 12 -10 1 5 -12 15
-11 17 9 15 15 -2 24 3 26 15 4 27 8 29 30 13 16 -12 17 -17 6 -28 -11 -11
-12 -10 -7 5 5 11 2 17 -7 17 -8 0 -15 -6 -15 -12 0 -7 -4 -22 -8 -33 -6 -18
-5 -18 5 -2 9 13 15 15 30 7 16 -9 18 -8 13 6 -4 12 -3 15 5 10 7 -4 6 6 -3
28 -10 23 -11 37 -4 41 7 5 6 11 -1 20 -8 10 -7 16 7 24 11 6 13 11 5 11 -7 0
-10 5 -7 10 3 6 1 10 -5 10 -7 0 -9 -7 -6 -16 4 -10 2 -13 -6 -8 -7 5 -8 3 -3
-6 6 -9 4 -11 -5 -5 -8 5 -11 4 -6 -3 3 -6 1 -14 -5 -18 -8 -5 -10 -2 -5 7 4
8 -1 4 -11 -9 -17 -21 -21 -22 -32 -8 -20 24 -33 8 -16 -18 8 -12 12 -26 8
-31 -5 -4 -1 -4 7 0 13 8 13 7 1 -8 -7 -9 -19 -17 -25 -17 -6 0 -4 5 4 10 13
8 8 14 -11 12 -3 -1 -5 16 -5 37 0 40 17 50 45 27 12 -9 12 -7 2 12 -7 13 -18
21 -24 19 -7 -2 -21 0 -32 6 -17 9 -18 8 -8 -4 17 -21 16 -29 -4 -46 -10 -8
-12 -12 -5 -8 6 3 12 2 12 -3 0 -14 -27 -23 -46 -15 -13 5 -13 7 -2 14 7 5 8
9 2 9 -12 0 -12 29 1 49 6 10 4 12 -5 6 -10 -6 -12 -4 -7 8 4 11 2 14 -9 10
-17 -6 -19 -23 -2 -23 6 0 8 -3 5 -7 -4 -3 -16 2 -27 12 -21 19 -28 7 -8 -13
9 -9 9 -12 0 -12 -7 0 -12 5 -12 11 0 5 -5 7 -12 3 -6 -4 -8 -3 -4 4 3 5 0 13
-6 15 -14 6 17 11 42 7 10 -1 8 5 -7 20 -13 11 -23 26 -23 33 0 7 5 4 11 -6 6
-9 15 -14 21 -11 6 4 8 2 4 -4 -11 -18 10 -22 30 -6 16 13 16 15 2 10 -10 -3
-20 -1 -23 4 -4 6 -1 10 6 10 18 0 2 13 -19 15 -9 1 -27 7 -39 13 -20 11 -22
10 -16 -4z m-154 -39 c-5 -16 -33 -21 -33 -7 0 13 22 32 31 26 5 -2 6 -11 2
-19z m217 21 c0 -3 -4 -8 -10 -11 -5 -3 -10 -1 -10 4 0 6 5 11 10 11 6 0 10
-2 10 -4z m-83 -102 c0 -7 -5 -15 -12 -17 -6 -3 -11 3 -11 12 0 10 5 18 11 18
7 0 12 -6 12 -13z m103 2 c0 -3 -4 -8 -10 -11 -5 -3 -10 -1 -10 4 0 6 5 11 10
11 6 0 10 -2 10 -4z m181 -30 c-6 -7 -7 -17 -3 -22 4 -4 -1 -2 -10 5 -13 10
-18 10 -18 2 0 -7 -5 -9 -10 -6 -7 4 -9 -3 -6 -19 3 -14 0 -26 -5 -26 -6 0 -9
6 -6 13 2 6 -5 26 -16 42 -20 28 -20 29 -1 13 18 -16 21 -16 44 2 26 20 48 17
31 -4z m-404 -12 c-3 -3 -12 -4 -19 -1 -8 3 -5 6 6 6 11 1 17 -2 13 -5z"/>
<path d="M2746 407 c3 -10 9 -15 12 -12 3 3 0 11 -7 18 -10 9 -11 8 -5 -6z"/>
<path d="M70 401 c0 -7 -4 -10 -8 -7 -5 3 -9 -1 -9 -9 0 -11 4 -12 14 -3 11 8
12 7 7 -6 -3 -9 -10 -16 -16 -16 -5 0 -7 -4 -3 -9 3 -5 0 -13 -6 -16 -5 -4 -8
-13 -5 -21 3 -8 0 -14 -7 -14 -8 0 -7 -4 3 -10 13 -9 13 -11 0 -20 -8 -5 -10
-10 -4 -10 6 0 11 -6 12 -12 5 -60 25 -109 38 -95 5 5 4 11 -2 15 -5 4 -9 14
-9 22 1 8 -5 26 -13 39 -13 22 -13 23 2 18 14 -6 15 -3 6 13 -6 11 -7 20 -3
20 4 0 1 5 -7 10 -10 6 -11 10 -2 10 6 0 12 6 12 14 0 8 6 17 13 19 9 4 9 6
-1 6 -7 1 -10 6 -7 11 5 8 11 7 21 -1 10 -8 9 -2 -3 22 -20 42 -23 46 -23 30z
m-7 -76 c-3 -9 -8 -14 -10 -11 -3 3 -2 9 2 15 9 16 15 13 8 -4z"/>
<path d="M150 405 c0 -6 5 -16 12 -23 7 -7 8 -12 2 -12 -6 0 -14 3 -18 7 -3 4
-16 7 -28 8 -19 2 -20 1 -3 -11 10 -8 15 -20 11 -29 -4 -11 5 -8 28 10 18 14
36 22 41 17 5 -4 5 -1 1 6 -5 7 -10 11 -14 8 -3 -3 -11 2 -18 12 -7 9 -14 12
-14 7z"/>
<path d="M765 400 c-2 -3 0 -12 6 -20 14 -23 11 -36 -4 -16 -11 16 -13 12 -12
-29 1 -25 -2 -48 -7 -51 -4 -3 -3 -14 2 -25 10 -18 6 -24 -15 -19 -5 1 -1 -9
10 -21 11 -12 14 -19 8 -15 -19 11 -16 -5 5 -21 9 -8 11 -12 5 -8 -9 4 -11 1
-6 -11 4 -10 8 -13 10 -7 2 5 14 8 27 6 13 -3 26 0 30 5 3 6 -2 8 -13 5 -10
-3 -22 0 -25 6 -5 7 -1 8 10 4 13 -5 15 -3 9 7 -6 9 -4 11 5 5 10 -6 11 -4 6
11 -5 10 -9 25 -9 32 0 6 -6 12 -14 12 -7 0 -13 5 -13 11 0 5 -4 8 -9 4 -5 -3
-12 -1 -15 4 -7 11 13 9 32 -2 6 -5 16 -6 21 -3 4 3 13 -6 20 -20 6 -15 7 -23
1 -19 -5 3 -10 1 -10 -4 0 -6 5 -11 11 -11 5 0 7 -4 4 -10 -3 -5 -1 -10 5 -10
7 0 10 -7 7 -15 -4 -8 -1 -17 5 -21 7 -4 8 -3 4 4 -5 8 0 12 13 12 11 0 23 4
26 10 4 6 -1 7 -12 3 -13 -4 -10 0 7 16 14 12 19 20 13 16 -8 -4 -13 0 -13 10
0 9 4 14 8 11 4 -2 14 0 22 5 13 9 13 10 0 8 -27 -3 -40 1 -40 12 0 5 5 7 12
3 7 -5 8 -3 2 7 -4 8 -8 28 -9 46 0 26 2 29 14 20 12 -10 13 -9 5 8 -6 11 -9
30 -8 43 1 24 -29 32 -42 10 -5 -7 -3 -8 7 -3 12 8 12 6 0 -8 -9 -12 -10 -17
-2 -17 7 0 9 -5 6 -10 -4 -6 -12 -7 -18 -3 -7 4 -5 -2 3 -12 8 -10 10 -16 3
-12 -6 4 -15 2 -19 -4 -4 -8 -3 -9 4 -5 7 4 12 2 12 -4 0 -6 4 -8 10 -5 6 3 7
-1 4 -9 -3 -9 -10 -14 -15 -11 -9 6 -6 -18 7 -50 7 -19 7 -19 -9 -3 -10 9 -21
27 -26 40 -7 17 -10 19 -10 6 -1 -10 -5 -18 -10 -18 -10 0 -9 19 2 37 4 7 3
21 -3 32 -7 14 -7 22 2 27 6 4 8 3 4 -4 -3 -6 -2 -13 3 -16 5 -4 8 2 6 11 -1
10 -8 17 -14 16 -15 -4 -14 24 2 30 6 3 2 4 -11 4 -13 -1 -25 -4 -27 -7z m30
-70 c4 -6 2 -17 -4 -24 -6 -7 -9 -15 -6 -18 3 -2 -1 -5 -8 -5 -8 0 -14 6 -14
13 0 7 4 11 8 9 4 -3 10 2 13 11 5 12 2 15 -9 10 -9 -3 -13 -2 -10 4 8 13 22
13 30 0z m80 -47 c-2 -10 -4 -19 -4 -21 -1 -2 -6 0 -11 3 -8 5 -7 11 1 21 15
18 18 18 14 -3z"/>
<path d="M1150 395 c0 -8 4 -15 10 -15 5 0 7 7 4 15 -4 8 -8 15 -10 15 -2 0
-4 -7 -4 -15z"/>
<path d="M1312 390 c-13 -21 -8 -45 7 -35 7 4 13 55 7 55 -1 0 -7 -9 -14 -20z"/>
<path d="M2185 390 c-4 -11 -10 -18 -15 -15 -12 7 -29 -26 -22 -44 2 -8 0 -11
-5 -8 -5 3 -10 0 -10 -8 0 -8 4 -12 9 -9 12 8 10 -10 -4 -26 -11 -12 -10 -12
5 0 10 7 15 20 12 28 -4 10 0 12 12 8 14 -6 15 -4 6 5 -13 13 -6 42 8 33 5 -3
6 -11 2 -17 -4 -7 0 -6 10 2 9 7 17 10 17 6 0 -4 6 -2 14 4 11 9 12 6 9 -16
-4 -23 -2 -25 7 -13 9 12 10 11 5 -7 -5 -18 -3 -22 9 -17 13 5 13 10 4 27 -6
12 -11 23 -10 25 8 11 -1 23 -13 18 -15 -5 -39 26 -28 38 3 3 1 6 -5 6 -6 0
-14 -9 -17 -20z m23 -22 c11 -14 10 -16 -5 -14 -10 2 -17 6 -15 9 1 4 2 12 2
19 0 6 1 9 3 7 1 -2 8 -12 15 -21z"/>
<path d="M2225 399 c-4 -6 -5 -12 -2 -15 2 -3 7 2 10 11 7 17 1 20 -8 4z"/>
<path d="M2720 400 c12 -8 12 -10 1 -10 -8 0 -5 -6 8 -17 l22 -18 -22 -13
c-11 -8 -18 -9 -14 -3 3 6 1 11 -5 11 -6 0 -9 4 -6 8 2 4 2 13 -2 19 -9 15
-37 21 -39 8 -1 -5 4 -9 11 -8 6 2 12 -6 13 -18 3 -33 23 -52 40 -38 11 9 17
9 26 -1 10 -10 9 -11 -3 -5 -10 5 -9 1 3 -11 18 -19 19 -18 38 6 10 14 23 30
29 37 6 8 5 13 -3 16 -9 4 -9 6 1 6 6 1 12 6 12 12 0 6 -8 8 -19 4 -13 -4 -23
0 -30 12 -10 17 -10 17 -11 1 0 -22 -13 -23 -30 -3 -7 8 -18 15 -24 15 -6 0
-4 -5 4 -10z"/>
<path d="M1128 394 c-4 -3 -19 -6 -35 -8 -15 -1 -34 -5 -41 -10 -7 -4 -19 -3
-27 4 -11 9 -13 7 -10 -7 2 -10 4 -20 5 -23 1 -3 2 -9 1 -13 -1 -4 9 -1 22 8
22 14 25 14 38 -2 12 -15 12 -16 -2 -11 -13 5 -16 2 -12 -13 3 -10 9 -19 15
-19 5 0 4 -8 -1 -19 -6 -10 -8 -21 -4 -24 3 -4 0 -13 -7 -22 -10 -12 -9 -16 4
-21 9 -3 16 -15 16 -26 0 -10 -5 -16 -10 -13 -6 4 -7 11 -4 17 4 7 2 8 -4 4
-7 -4 -12 -3 -12 3 0 5 -7 16 -15 25 -8 8 -16 24 -18 35 -2 11 -7 24 -12 28
-4 5 -5 2 -1 -4 4 -7 2 -14 -3 -14 -26 -3 -30 -4 -37 -11 -14 -15 -26 -8 -14
7 9 10 9 15 1 15 -6 0 -11 -5 -11 -11 0 -5 -6 -7 -12 -3 -9 5 -9 3 1 -9 11
-14 11 -18 -2 -23 -9 -3 -14 -14 -12 -26 3 -14 0 -18 -11 -14 -9 3 -12 2 -9
-5 4 -5 1 -17 -7 -26 -9 -12 -9 -15 0 -9 6 4 12 3 12 -2 0 -6 7 -13 16 -16 8
-3 12 -2 9 4 -3 5 8 7 27 5 l33 -4 -25 20 c-22 18 -25 19 -36 5 -6 -9 -14 -13
-17 -9 -11 11 27 32 43 23 8 -4 23 -6 32 -5 9 2 24 -8 33 -22 16 -24 17 -24
30 -6 8 10 15 14 15 9 0 -5 9 -1 20 9 16 15 25 16 44 7 29 -13 41 -5 23 16 -9
13 -9 14 1 8 7 -4 12 -2 12 4 0 6 5 8 11 5 6 -4 5 2 -2 13 -7 12 -18 18 -24
14 -5 -3 -3 3 5 13 10 12 11 16 2 11 -10 -6 -12 3 -11 38 2 34 6 45 16 42 7
-3 13 -1 13 4 0 6 -6 10 -14 10 -13 0 -31 27 -28 43 2 8 -2 9 -10 1z m10 -32
c13 -26 8 -47 -10 -44 -9 1 -19 -2 -23 -8 -3 -5 0 -7 8 -4 8 3 18 1 22 -5 3
-7 -3 -11 -16 -11 -18 0 -19 -2 -9 -15 11 -13 10 -14 -5 -9 -14 6 -16 4 -10
-6 5 -9 4 -11 -3 -6 -8 5 -9 13 -2 25 6 12 5 22 -3 31 -9 10 -9 11 1 6 19 -11
14 19 -6 37 -10 10 -22 14 -27 10 -4 -5 -6 -3 -3 2 11 18 77 16 86 -3z m-128
-118 c0 -7 -5 -16 -10 -19 -6 -4 -7 -11 -4 -17 4 -6 10 -5 15 3 7 11 9 11 9
-2 0 -23 -26 -31 -44 -14 -8 8 -23 12 -33 9 -15 -5 -15 -4 -3 5 8 6 11 11 5
11 -15 1 35 37 51 37 8 0 14 -6 14 -13z m43 -72 c4 10 7 10 18 -1 8 -8 9 -11
2 -7 -6 3 -14 2 -18 -4 -9 -15 -22 -12 -29 6 -5 14 -4 15 8 5 11 -9 15 -9 19
1z"/>
<path d="M1092 352 c6 -7 19 -17 29 -22 14 -8 16 -6 14 8 -2 9 -4 19 -4 23 -1
3 -12 5 -26 5 -19 0 -22 -3 -13 -14z m33 -10 c-3 -3 -11 0 -18 7 -9 10 -8 11
6 5 10 -3 15 -9 12 -12z"/>
<path d="M980 236 c0 -10 -6 -13 -17 -9 -10 3 -16 4 -13 2 29 -25 53 -41 43
-29 -9 9 -9 17 -2 26 7 8 7 14 -1 19 -5 3 -10 -1 -10 -9z"/>
<path d="M1493 385 c0 -8 4 -12 9 -9 5 3 6 10 3 15 -9 13 -12 11 -12 -6z"/>
<path d="M594 383 c4 -7 2 -13 -4 -13 -6 0 -8 -4 -5 -10 3 -5 1 -10 -4 -10 -6
0 -11 5 -11 12 0 6 -3 8 -7 4 -9 -8 24 -36 41 -36 6 0 4 5 -4 10 -8 5 -10 10
-3 10 13 0 12 25 -2 37 -4 4 -5 2 -1 -4z"/>
<path d="M2095 369 c3 -14 0 -19 -9 -16 -7 3 -13 -1 -13 -8 0 -8 3 -14 6 -13
19 2 24 -4 11 -13 -13 -9 -13 -10 0 -6 8 2 14 11 12 20 -2 10 3 15 10 13 7 -1
9 -1 4 2 -5 3 2 13 15 24 23 18 23 19 2 8 -16 -7 -23 -7 -23 0 0 5 -4 10 -9
10 -6 0 -8 -9 -6 -21z"/>
<path d="M1326 345 c-10 -15 -19 -33 -20 -39 -1 -6 -5 -17 -10 -24 -4 -7 -3
-19 4 -27 6 -8 9 -18 6 -23 -3 -6 1 -15 9 -22 12 -10 16 -9 21 4 3 9 13 16 21
16 12 0 13 3 4 14 -7 8 -10 26 -7 41 3 18 0 28 -11 32 -15 6 -15 7 -1 12 10 4
13 12 9 25 -6 17 -9 16 -25 -9z m-4 -57 c-6 -6 -8 -18 -5 -27 4 -13 3 -14 -5
-1 -7 9 -7 19 -2 26 6 6 6 15 2 19 -4 5 -1 5 6 0 9 -5 10 -11 4 -17z m22 -34
c3 -8 2 -12 -4 -9 -6 3 -10 10 -10 16 0 14 7 11 14 -7z"/>
<path d="M990 340 c0 -5 5 -10 10 -10 6 0 10 5 10 10 0 6 -4 10 -10 10 -5 0
-10 -4 -10 -10z"/>
<path d="M1737 336 c-3 -8 -2 -18 3 -21 13 -8 20 9 11 24 -6 10 -10 9 -14 -3z"/>
<path d="M1787 318 c-3 -8 5 -14 20 -14 13 -1 23 -1 21 0 -2 1 -10 7 -19 14
-13 10 -18 10 -22 0z"/>
<path d="M2195 320 c-6 -9 1 -14 18 -11 4 0 7 -3 7 -9 0 -5 -4 -10 -9 -10 -5
0 -12 -7 -15 -16 -3 -8 -2 -13 3 -10 5 3 8 -10 6 -28 -2 -21 2 -39 11 -47 8
-6 14 -8 14 -4 0 4 11 -4 25 -19 14 -15 30 -24 35 -21 6 3 10 0 10 -7 0 -7 6
-4 12 7 15 25 19 47 7 39 -5 -3 -6 -11 -2 -17 4 -7 0 -6 -10 2 -17 14 -24 26
-9 17 4 -2 13 4 20 14 10 16 9 21 -6 29 -9 5 -16 13 -14 18 2 4 -2 9 -10 11
-10 3 -10 2 1 -6 10 -8 11 -11 1 -17 -10 -6 -8 -12 6 -23 15 -11 15 -13 2 -9
-20 7 -34 -23 -16 -34 7 -4 10 -10 7 -13 -10 -10 -32 13 -34 37 -2 20 0 24 13
20 13 -5 14 -3 5 7 -6 7 -9 19 -6 28 4 10 2 13 -6 8 -6 -4 -11 -4 -9 1 2 10
-35 73 -44 73 -4 0 -10 -4 -13 -10z"/>
<path d="M925 310 c18 -7 19 -8 3 -15 -10 -4 -18 -12 -18 -18 0 -7 4 -7 12 1
7 7 23 12 36 12 37 0 21 22 -18 26 -26 2 -30 1 -15 -6z"/>
<path d="M993 305 c0 -8 4 -12 9 -9 5 3 6 10 3 15 -9 13 -12 11 -12 -6z"/>
<path d="M568 272 c9 -11 21 -17 26 -14 5 3 6 0 3 -6 -4 -5 -24 -9 -45 -7 -31
2 -40 -1 -48 -18 -5 -11 -16 -22 -24 -25 -12 -3 -12 -2 -2 6 11 7 10 11 -4 16
-10 4 -15 4 -11 0 4 -5 -3 -14 -15 -21 l-23 -14 25 7 c22 6 23 5 11 -9 -7 -9
-17 -14 -22 -12 -9 6 -3 -35 7 -44 4 -3 4 2 1 11 -3 9 1 22 10 30 15 11 16 10
10 -7 -6 -17 -4 -17 9 3 9 12 21 22 26 22 6 0 5 -7 -2 -15 -7 -9 -10 -18 -6
-22 3 -3 6 -1 6 5 0 7 5 12 11 12 5 0 7 -6 3 -12 -5 -9 -2 -8 9 1 16 13 16 15
2 31 -11 12 -13 20 -5 25 5 3 7 11 4 17 -4 7 -2 8 5 4 9 -6 9 -11 -1 -24 -11
-13 -10 -15 5 -9 10 4 16 3 12 -2 -3 -5 -1 -12 4 -16 6 -3 7 -13 4 -23 -3 -9
-3 -14 1 -11 9 9 17 51 8 45 -5 -3 -9 4 -9 15 -1 10 2 19 8 19 5 0 9 -7 9 -15
0 -26 1 -30 16 -46 8 -9 12 -18 9 -21 -3 -3 5 -3 19 -1 25 5 41 27 30 44 -3 5
-9 7 -14 4 -4 -3 -6 5 -2 17 3 14 2 19 -6 14 -11 -6 -17 18 -13 46 0 4 -5 5
-13 2 -8 -3 -17 -1 -21 5 -3 6 -10 11 -16 11 -5 0 -1 -8 9 -18z"/>
<path d="M1500 280 c18 -12 30 -13 30 -2 0 4 -10 9 -22 9 -18 2 -20 0 -8 -7z"/>
<path d="M2315 280 c-4 -6 -4 -14 -1 -17 3 -4 6 -1 6 5 0 7 5 12 11 12 5 0 7
-4 4 -10 -3 -5 -1 -10 5 -10 14 0 8 22 -7 27 -6 2 -14 -1 -18 -7z"/>
<path d="M1846 263 c-6 -14 -5 -15 5 -6 7 7 10 15 7 18 -3 3 -9 -2 -12 -12z"/>
<path d="M350 261 c0 -6 4 -12 8 -15 5 -3 9 1 9 9 0 8 -4 15 -9 15 -4 0 -8 -4
-8 -9z"/>
<path d="M2140 260 c-8 -5 -10 -10 -5 -10 6 0 17 5 25 10 8 5 11 10 5 10 -5 0
-17 -5 -25 -10z"/>
<path d="M2100 235 c-7 -8 -17 -12 -24 -8 -6 3 -3 -2 6 -12 16 -17 16 -19 0
-32 -15 -13 -14 -13 6 -3 12 6 20 15 17 20 -3 4 1 11 7 13 10 4 9 6 -1 6 -11
1 -11 4 -1 16 7 8 10 15 7 15 -2 0 -10 -7 -17 -15z"/>
<path d="M2710 241 c0 -6 4 -13 10 -16 6 -3 7 1 4 9 -7 18 -14 21 -14 7z"/>
<path d="M2140 230 c-8 -5 -10 -10 -5 -10 6 0 17 5 25 10 8 5 11 10 5 10 -5 0
-17 -5 -25 -10z"/>
<path d="M2184 223 c3 -6 2 -14 -4 -18 -5 -3 -10 -1 -10 4 0 14 -11 14 -30 1
-13 -9 -13 -12 3 -21 9 -6 15 -14 12 -19 -6 -9 42 -6 52 3 3 4 0 14 -8 23 -8
10 -12 19 -11 21 2 3 0 8 -4 11 -4 4 -4 2 0 -5z m-1 -29 c4 -1 10 -2 14 -3 4
0 2 -6 -5 -13 -8 -8 -15 -8 -27 2 -18 15 -20 35 -2 23 6 -4 15 -8 20 -9z"/>
<path d="M1340 205 c-9 -11 -16 -12 -26 -4 -17 14 -35 3 -27 -16 6 -18 -8 -20
-25 -3 -9 9 -12 9 -12 0 0 -7 3 -12 8 -12 4 0 15 -12 24 -27 11 -18 18 -22 19
-13 1 8 2 20 4 25 1 6 3 16 3 23 1 8 7 10 15 5 18 -11 38 -13 31 -2 -3 5 -2 9
1 9 10 0 35 -27 30 -32 -3 -3 2 -5 12 -5 11 0 7 8 -15 28 -19 17 -26 30 -19
33 8 3 8 5 1 5 -6 1 -17 -6 -24 -14z"/>
<path d="M185 191 c2 -9 4 -23 4 -31 1 -13 2 -13 11 0 6 9 5 17 -3 22 -9 6 -9
8 1 8 6 0 12 4 12 8 0 5 -6 9 -14 9 -7 0 -12 -7 -11 -16z"/>
<path d="M399 193 c-8 -9 -9 -14 -2 -10 6 4 13 1 16 -5 3 -7 4 -3 4 10 -1 26
-1 26 -18 5z"/>
<path d="M2636 194 c-9 -24 -2 -26 12 -4 7 11 8 20 3 20 -5 0 -12 -7 -15 -16z"/>
<path d="M2101 171 c-8 -5 -9 -11 -3 -15 5 -3 12 1 16 9 6 17 6 18 -13 6z"/>
<path d="M2366 169 c3 -5 0 -9 -7 -9 -7 0 -9 -3 -6 -6 4 -4 13 -2 20 4 8 7 16
11 18 9 2 -1 3 0 1 2 -1 3 -9 6 -17 7 -8 1 -13 -2 -9 -7z"/>
<path d="M2651 164 c0 -11 3 -14 6 -6 3 7 2 16 -1 19 -3 4 -6 -2 -5 -13z"/>
<path d="M2175 140 c-3 -6 1 -7 9 -4 18 7 21 14 7 14 -6 0 -13 -4 -16 -10z"/>
</g>
</svg>
