<?xml version="1.0" standalone="no"?>
<!DOCTYPE svg PUBLIC "-//W3C//DTD SVG 20010904//EN"
 "http://www.w3.org/TR/2001/REC-SVG-20010904/DTD/svg10.dtd">
<svg version="1.0" xmlns="http://www.w3.org/2000/svg"
 width="260.000000pt" height="260.000000pt" viewBox="0 0 260.000000 260.000000"
 preserveAspectRatio="xMidYMid meet">
<metadata>
Created by potrace 1.11, written by Peter Selinger 2001-2013
</metadata>
<g transform="translate(0.000000,260.000000) scale(0.100000,-0.100000)"
fill="#000000" stroke="none">
<path d="M937 1823 c-4 -3 -7 -18 -7 -33 0 -26 3 -27 85 -39 47 -7 88 -14 92
-15 8 -1 27 53 20 60 -3 4 -161 34 -178 34 -3 0 -9 -3 -12 -7z m74 -32 c0 -14
1 -14 11 0 9 13 17 14 49 5 36 -9 50 -28 31 -40 -4 -2 -27 0 -52 5 -25 6 -53
10 -62 10 -10 0 -20 5 -23 10 -4 5 -11 7 -16 4 -9 -6 -13 18 -4 27 12 11 65
-5 66 -21z"/>
<path d="M295 1668 c-115 -21 -138 -28 -77 -26 29 2 46 -3 52 -12 8 -13 10
-13 10 1 0 17 27 29 68 29 15 0 22 -6 22 -19 0 -37 18 -31 22 7 3 20 5 37 4
38 -1 0 -46 -8 -101 -18z"/>
<path d="M1230 1663 c-35 -6 -37 -10 -45 -75 -7 -67 -6 -67 85 -46 l51 12 -6
50 c-4 28 -8 52 -9 53 -5 6 -55 10 -76 6z"/>
<path d="M1129 1655 c-4 -5 -9 -27 -13 -47 -6 -32 -10 -37 -39 -40 -50 -5 -42
-32 10 -36 40 -3 42 -2 48 31 8 39 3 107 -6 92z"/>
<path d="M161 1588 c-1 -22 5 -29 25 -34 15 -4 30 -2 37 6 9 9 5 11 -18 8 -24
-2 -30 1 -36 22 l-7 25 -1 -27z"/>
<path d="M267 1603 c-10 -16 -7 -173 3 -173 5 0 10 21 12 47 5 62 -5 142 -15
126z"/>
<path d="M418 1578 c17 -8 26 -8 34 0 9 9 4 12 -22 11 -33 0 -34 -1 -12 -11z"/>
<path d="M380 1521 c0 -24 5 -29 31 -35 49 -9 52 -8 44 22 -10 40 -25 51 -25
18 0 -21 -4 -27 -17 -24 -12 3 -17 12 -16 26 2 12 -2 22 -7 22 -6 0 -10 -13
-10 -29z"/>
<path d="M690 1542 c-14 -2 -42 -8 -62 -13 -36 -9 -38 -12 -37 -47 l2 -37 10
36 c10 35 12 37 61 42 62 6 66 4 66 -33 0 -24 -5 -29 -32 -35 -108 -22 -108
-22 -108 -70 0 -25 5 -45 10 -45 6 0 10 20 10 45 l0 45 45 2 c25 0 51 1 58 2
8 1 12 -12 11 -36 0 -25 4 -38 13 -38 10 0 13 22 13 89 0 96 -3 101 -60 93z"/>
<path d="M480 1505 c0 -19 5 -35 10 -35 6 0 10 16 10 35 0 19 -4 35 -10 35 -5
0 -10 -16 -10 -35z"/>
<path d="M160 1494 c0 -21 4 -33 10 -29 6 3 10 19 10 36 0 16 -4 29 -10 29 -5
0 -10 -16 -10 -36z"/>
<path d="M1410 1493 c0 -20 3 -33 7 -30 9 10 10 67 1 67 -5 0 -8 -16 -8 -37z"/>
<path d="M881 1415 c1 -63 5 -95 13 -95 17 0 15 178 -2 185 -10 4 -13 -16 -11
-90z"/>
<path d="M1300 1501 c0 -5 -16 -12 -35 -15 -19 -4 -35 -11 -35 -16 0 -13 12
-13 44 0 21 7 26 6 26 -5 0 -8 5 -15 10 -15 6 0 10 14 10 30 0 17 -4 30 -10
30 -5 0 -10 -4 -10 -9z"/>
<path d="M1073 1477 c9 -8 17 -26 17 -41 0 -15 4 -25 9 -22 20 12 8 54 -18 65
-23 10 -24 10 -8 -2z"/>
<path d="M1196 1475 c-6 -17 2 -45 13 -45 4 0 6 14 3 30 -5 34 -7 36 -16 15z"/>
<path d="M380 1420 c0 -22 5 -40 10 -40 6 0 10 18 10 40 0 22 -4 40 -10 40 -5
0 -10 -18 -10 -40z"/>
<path d="M430 1436 c0 -16 6 -26 14 -26 9 0 12 7 9 20 -8 31 -23 34 -23 6z"/>
<path d="M480 1404 c0 -28 4 -44 11 -42 6 2 10 7 10 11 -1 4 -1 23 -1 42 0 19
-4 35 -10 35 -5 0 -10 -21 -10 -46z"/>
<path d="M1410 1416 c0 -13 -3 -31 -6 -40 -4 -11 -1 -16 10 -16 12 0 16 10 16
40 0 22 -4 40 -10 40 -5 0 -10 -11 -10 -24z"/>
<path d="M1837 1408 c-21 -17 -48 -32 -61 -33 -30 -4 -66 -27 -66 -42 0 -13
-74 -53 -98 -53 -10 0 -12 -8 -7 -30 6 -26 4 -30 -15 -30 -16 0 -20 -4 -16
-16 8 -22 -4 -40 -16 -23 -6 9 -7 5 -2 -12 8 -36 -10 -44 -27 -13 -12 23 -11
27 3 35 27 15 14 42 -23 51 -19 5 -50 13 -70 19 -45 14 -177 -9 -240 -42 -24
-12 -69 -30 -100 -39 -52 -16 -63 -16 -123 -3 -37 9 -81 12 -101 9 l-34 -7 2
-74 c2 -69 0 -75 -18 -75 -17 0 -17 2 -5 10 13 8 12 10 -2 10 -20 0 -24 -25
-7 -36 7 -4 9 -24 6 -55 -7 -54 -2 -57 44 -34 21 11 43 14 78 9 l48 -6 6 -66
c8 -79 46 -163 89 -193 72 -51 268 -80 298 -44 7 8 19 15 26 15 8 0 19 9 26
20 7 11 18 20 25 20 17 0 31 29 25 52 -4 15 0 19 14 16 16 -2 19 3 19 32 0 25
5 36 18 38 18 4 24 37 7 47 -13 8 -1 35 16 35 17 0 18 14 2 41 -10 17 -10 23
0 26 17 6 15 38 -3 53 -24 20 1 40 50 40 38 0 43 -2 38 -20 -3 -12 1 -22 11
-26 11 -4 14 -13 10 -31 -4 -16 -2 -28 6 -33 8 -5 15 -15 16 -23 6 -41 72 -80
182 -107 141 -35 211 -42 260 -23 23 8 42 19 42 23 0 4 9 10 20 13 11 3 20 14
20 25 0 12 9 22 21 25 17 5 20 11 15 32 -5 21 -2 27 20 35 22 9 24 13 14 25
-15 18 -6 45 15 45 8 0 15 7 15 15 0 8 -4 15 -10 15 -5 0 -10 9 -10 20 0 11 7
20 15 20 18 0 20 21 3 38 -9 9 -8 18 2 38 13 23 13 27 -2 38 -12 9 -14 16 -7
23 7 7 3 24 -13 54 -44 86 -70 100 -243 128 -72 12 -139 23 -150 26 -12 2 -35
-8 -58 -27z m338 -150 c88 -40 92 -222 7 -312 -39 -40 -66 -49 -107 -32 -106
45 -85 284 30 341 37 18 38 18 70 3z m-735 -178 c86 -92 40 -302 -75 -340 -89
-29 -162 83 -135 207 32 140 140 208 210 133z m-410 -12 c0 -44 -9 -54 -50
-63 -31 -7 -33 -6 -21 9 7 8 17 13 22 10 5 -3 11 1 14 8 28 79 35 87 35 36z
m1 -71 c-10 -9 -11 -8 -5 6 3 10 9 15 12 12 3 -3 0 -11 -7 -18z"/>
<path d="M1300 1380 c0 -26 5 -40 13 -40 9 0 11 12 9 40 -2 22 -8 40 -13 40
-5 0 -9 -18 -9 -40z"/>
<path d="M270 1384 c-6 -14 -10 -40 -10 -57 0 -21 -3 -27 -8 -19 -7 10 -15 10
-36 2 -24 -9 -27 -14 -22 -38 6 -26 6 -26 -10 -7 -16 20 -16 20 -11 -3 3 -13
-1 -29 -10 -37 -8 -8 -10 -15 -4 -15 5 0 15 8 20 18 11 18 12 17 14 -42 2 -38
21 -60 30 -34 2 7 3 4 1 -7 -2 -11 -4 -33 -5 -50 0 -21 -2 -25 -7 -13 -4 9 -8
-14 -9 -52 -1 -62 1 -70 17 -70 10 0 24 -2 32 -3 7 -2 10 -2 6 0 -4 3 -3 16 3
29 12 33 12 32 -8 37 -15 4 -16 5 -2 6 9 0 19 12 22 27 3 19 -1 28 -17 34 -21
9 -21 9 2 9 16 1 22 7 22 24 0 13 -6 29 -12 36 -11 11 -10 12 0 6 11 -5 13 1
11 27 -2 18 0 38 3 43 3 6 6 39 7 74 0 36 5 69 11 75 15 15 12 26 -5 26 -9 0
-20 -12 -25 -26z m-23 -131 c-3 -10 -5 -4 -5 12 0 17 2 24 5 18 2 -7 2 -21 0
-30z m-10 -60 c-3 -10 -5 -4 -5 12 0 17 2 24 5 18 2 -7 2 -21 0 -30z"/>
<path d="M1193 1361 c1 -23 7 -41 13 -41 15 0 12 72 -3 77 -7 3 -11 -10 -10
-36z"/>
<path d="M1078 1383 c6 -2 12 -18 12 -34 0 -16 5 -29 10 -29 17 0 12 57 -6 64
-9 3 -19 6 -22 5 -4 0 -1 -3 6 -6z"/>
<path d="M320 1309 c0 -21 4 -27 15 -23 8 4 15 13 15 21 0 11 8 13 33 8 55
-11 67 -16 67 -27 0 -7 4 -7 13 0 6 5 27 7 45 5 29 -5 33 -9 29 -30 -3 -19 -1
-22 14 -18 24 8 31 -19 27 -103 l-3 -69 -110 24 c-60 13 -117 22 -125 20 -8
-1 39 -14 105 -27 l120 -25 5 -85 c4 -55 8 -76 12 -60 8 30 20 390 12 373 -4
-8 -14 -9 -32 -3 -15 5 -75 18 -134 28 l-108 19 0 -28z"/>
<path d="M720 1324 c-14 -10 -26 -18 -28 -19 -2 -2 -14 -70 -27 -151 -14 -82
-27 -162 -30 -179 -4 -23 -3 -27 6 -15 8 11 9 5 4 -25 -3 -22 -8 -48 -11 -57
-4 -15 0 -17 27 -14 26 2 35 9 40 30 6 22 4 29 -14 36 l-22 9 23 0 c12 1 22 5
22 10 0 5 3 16 6 25 4 11 -2 19 -17 25 -23 10 -24 10 -2 10 29 1 42 40 18 57
-16 12 -16 13 4 11 14 -1 21 -8 21 -22 0 -28 -28 -184 -35 -195 -9 -15 21 -12
33 3 5 6 16 46 23 87 9 51 20 82 35 97 l21 21 -22 5 c-18 3 -22 0 -20 -15 2
-10 0 -18 -6 -18 -5 0 -9 18 -9 40 0 28 -5 43 -16 47 -9 3 -11 8 -6 12 18 11
26 61 11 61 -10 0 -11 2 -2 8 6 4 14 19 18 32 5 22 1 28 -22 38 l-28 12 28 -4
c15 -2 27 1 27 5 0 5 -4 9 -9 9 -5 0 -11 9 -13 20 -3 20 -4 20 -28 4z"/>
<path d="M793 1300 c-6 -14 -13 -42 -16 -62 -5 -34 -3 -38 16 -38 15 0 18 3
10 11 -7 7 -8 24 -1 51 10 48 4 74 -9 38z"/>
<path d="M378 1273 c6 -2 18 -2 25 0 6 3 1 5 -13 5 -14 0 -19 -2 -12 -5z"/>
<path d="M420 1270 c0 -6 7 -10 15 -10 8 0 15 2 15 4 0 2 -7 6 -15 10 -8 3
-15 1 -15 -4z"/>
<path d="M500 1269 c0 -6 -9 -9 -20 -6 -11 3 -18 1 -14 -4 9 -15 44 -10 44 6
0 8 -2 15 -5 15 -3 0 -5 -5 -5 -11z"/>
<path d="M1448 1273 c7 -3 16 -2 19 1 4 3 -2 6 -13 5 -11 0 -14 -3 -6 -6z"/>
<path d="M817 1139 c5 -25 2 -35 -12 -46 -11 -7 -14 -13 -9 -13 29 0 48 70 24
85 -6 4 -7 -6 -3 -26z"/>
<path d="M306 960 c5 -4 27 -11 49 -14 45 -7 38 -2 -19 13 -22 6 -35 6 -30 1z"/>
<path d="M408 933 c6 -2 18 -2 25 0 6 3 1 5 -13 5 -14 0 -19 -2 -12 -5z"/>
<path d="M458 923 c7 -3 16 -2 19 1 4 3 -2 6 -13 5 -11 0 -14 -3 -6 -6z"/>
<path d="M508 913 c7 -3 16 -2 19 1 4 3 -2 6 -13 5 -11 0 -14 -3 -6 -6z"/>
<path d="M170 891 c0 -23 39 -36 46 -16 8 20 -4 35 -27 35 -12 0 -19 -7 -19
-19z"/>
<path d="M597 801 c-5 -20 9 -31 40 -31 9 0 13 8 11 23 -4 29 -43 36 -51 8z"/>
<path d="M781 791 c-11 -7 -11 -9 0 -14 10 -3 6 -8 -11 -16 -23 -11 -23 -11 9
-6 41 6 45 9 38 30 -7 17 -16 19 -36 6z"/>
</g>
</svg>
